  0
SECTION
  2
HEADER
  9
$ACADVER
  1
AC1015
  9
$ACADMAINTVER
 70
     6
  9
$DWGCODEPAGE
  3
ANSI_936
  9
$INSBASE
 10
0.0
 20
0.0
 30
0.0
  9
$EXTMIN
 10
0.0
 20
0.0
 30
0.0
  9
$EXTMAX
 10
127.6989214735
 20
40.0
 30
0.0
  9
$LIMMIN
 10
0.0
 20
0.0
  9
$LIMMAX
 10
420.0
 20
297.0
  9
$ORTHOMODE
 70
     0
  9
$REGENMODE
 70
     1
  9
$FILLMODE
 70
     1
  9
$QTEXTMODE
 70
     0
  9
$MIRRTEXT
 70
     1
  9
$LTSCALE
 40
1.0
  9
$ATTMODE
 70
     1
  9
$TEXTSIZE
 40
3.5
  9
$TRACEWID
 40
1.0
  9
$TEXTSTYLE
  7
Standard
  9
$CLAYER
  8
0
  9
$CELTYPE
  6
ByLayer
  9
$CECOLOR
 62
   256
  9
$CELTSCALE
 40
1.0
  9
$DISPSILH
 70
     0
  9
$DIMSCALE
 40
1.0
  9
$DIMASZ
 40
3.556
  9
$DIMEXO
 40
1.0
  9
$DIMDLI
 40
3.75
  9
$DIMRND
 40
0.0
  9
$DIMDLE
 40
0.0
  9
$DIMEXE
 40
1.0
  9
$DIMTP
 40
0.0
  9
$DIMTM
 40
0.0
  9
$DIMTXT
 40
3.5
  9
$DIMCEN
 40
2.5
  9
$DIMTSZ
 40
0.0
  9
$DIMTOL
 70
     0
  9
$DIMLIM
 70
     0
  9
$DIMTIH
 70
     1
  9
$DIMTOH
 70
     1
  9
$DIMSE1
 70
     0
  9
$DIMSE2
 70
     0
  9
$DIMTAD
 70
     1
  9
$DIMZIN
 70
     1
  9
$DIMBLK
  1

  9
$DIMASO
 70
     1
  9
$DIMSHO
 70
     1
  9
$DIMPOST
  1

  9
$DIMAPOST
  1

  9
$DIMALT
 70
     0
  9
$DIMALTD
 70
     3
  9
$DIMALTF
 40
0.0393700787
  9
$DIMLFAC
 40
1.0
  9
$DIMTOFL
 70
     1
  9
$DIMTVP
 40
0.0
  9
$DIMTIX
 70
     0
  9
$DIMSOXD
 70
     0
  9
$DIMSAH
 70
     0
  9
$DIMBLK1
  1

  9
$DIMBLK2
  1

  9
$DIMSTYLE
  2
ISO-25
  9
$DIMCLRD
 70
     0
  9
$DIMCLRE
 70
     0
  9
$DIMCLRT
 70
     0
  9
$DIMTFAC
 40
1.0
  9
$DIMGAP
 40
1.524
  9
$DIMJUST
 70
     0
  9
$DIMSD1
 70
     0
  9
$DIMSD2
 70
     0
  9
$DIMTOLJ
 70
     0
  9
$DIMTZIN
 70
     1
  9
$DIMALTZ
 70
     0
  9
$DIMALTTZ
 70
     0
  9
$DIMUPT
 70
     0
  9
$DIMDEC
 70
     2
  9
$DIMTDEC
 70
     2
  9
$DIMALTU
 70
     2
  9
$DIMALTTD
 70
     3
  9
$DIMTXSTY
  7
Standard
  9
$DIMAUNIT
 70
     0
  9
$DIMADEC
 70
     2
  9
$DIMALTRND
 40
0.0
  9
$DIMAZIN
 70
     0
  9
$DIMDSEP
 70
    44
  9
$DIMATFIT
 70
     3
  9
$DIMFRAC
 70
     0
  9
$DIMLDRBLK
  1

  9
$DIMLUNIT
 70
     2
  9
$DIMLWD
 70
    -2
  9
$DIMLWE
 70
    -2
  9
$DIMTMOVE
 70
     0
  9
$LUNITS
 70
     2
  9
$LUPREC
 70
     2
  9
$SKETCHINC
 40
1.0
  9
$FILLETRAD
 40
10.0
  9
$AUNITS
 70
     0
  9
$AUPREC
 70
     2
  9
$MENU
  1
.
  9
$ELEVATION
 40
0.0
  9
$PELEVATION
 40
0.0
  9
$THICKNESS
 40
0.0
  9
$LIMCHECK
 70
     0
  9
$CHAMFERA
 40
0.0
  9
$CHAMFERB
 40
0.0
  9
$CHAMFERC
 40
0.0
  9
$CHAMFERD
 40
0.0
  9
$SKPOLY
 70
     0
  9
$TDCREATE
 40
2458987.45972059
  9
$TDUCREATE
 40
2458987.126387257
  9
$TDUPDATE
 40
2458987.459967859
  9
$TDUUPDATE
 40
2458987.126634526
  9
$TDINDWG
 40
0.0000000116
  9
$TDUSRTIMER
 40
0.0000000116
  9
$USRTIMER
 70
     1
  9
$ANGBASE
 50
0.0
  9
$ANGDIR
 70
     0
  9
$PDMODE
 70
     0
  9
$PDSIZE
 40
-1.0
  9
$PLINEWID
 40
0.0
  9
$SPLFRAME
 70
     0
  9
$SPLINETYPE
 70
     6
  9
$SPLINESEGS
 70
     8
  9
$HANDSEED
  5
114
  9
$SURFTAB1
 70
     6
  9
$SURFTAB2
 70
     6
  9
$SURFTYPE
 70
     6
  9
$SURFU
 70
     6
  9
$SURFV
 70
     6
  9
$UCSBASE
  2

  9
$UCSNAME
  2

  9
$UCSORG
 10
0.0
 20
0.0
 30
0.0
  9
$UCSXDIR
 10
1.0
 20
0.0
 30
0.0
  9
$UCSYDIR
 10
0.0
 20
1.0
 30
0.0
  9
$UCSORTHOREF
  2

  9
$UCSORTHOVIEW
 70
     0
  9
$UCSORGTOP
 10
0.0
 20
0.0
 30
0.0
  9
$UCSORGBOTTOM
 10
0.0
 20
0.0
 30
0.0
  9
$UCSORGLEFT
 10
0.0
 20
0.0
 30
0.0
  9
$UCSORGRIGHT
 10
0.0
 20
0.0
 30
0.0
  9
$UCSORGFRONT
 10
0.0
 20
0.0
 30
0.0
  9
$UCSORGBACK
 10
0.0
 20
0.0
 30
0.0
  9
$PUCSBASE
  2

  9
$PUCSNAME
  2

  9
$PUCSORG
 10
0.0
 20
0.0
 30
0.0
  9
$PUCSXDIR
 10
1.0
 20
0.0
 30
0.0
  9
$PUCSYDIR
 10
0.0
 20
1.0
 30
0.0
  9
$PUCSORTHOREF
  2

  9
$PUCSORTHOVIEW
 70
     0
  9
$PUCSORGTOP
 10
0.0
 20
0.0
 30
0.0
  9
$PUCSORGBOTTOM
 10
0.0
 20
0.0
 30
0.0
  9
$PUCSORGLEFT
 10
0.0
 20
0.0
 30
0.0
  9
$PUCSORGRIGHT
 10
0.0
 20
0.0
 30
0.0
  9
$PUCSORGFRONT
 10
0.0
 20
0.0
 30
0.0
  9
$PUCSORGBACK
 10
0.0
 20
0.0
 30
0.0
  9
$USERI1
 70
     0
  9
$USERI2
 70
     0
  9
$USERI3
 70
     0
  9
$USERI4
 70
     0
  9
$USERI5
 70
     0
  9
$USERR1
 40
0.0
  9
$USERR2
 40
0.0
  9
$USERR3
 40
0.0
  9
$USERR4
 40
0.0
  9
$USERR5
 40
0.0
  9
$WORLDVIEW
 70
     1
  9
$SHADEDGE
 70
     3
  9
$SHADEDIF
 70
    70
  9
$TILEMODE
 70
     1
  9
$MAXACTVP
 70
    64
  9
$PINSBASE
 10
0.0
 20
0.0
 30
0.0
  9
$PLIMCHECK
 70
     0
  9
$PEXTMIN
 10
1.0000000000E+20
 20
1.0000000000E+20
 30
1.0000000000E+20
  9
$PEXTMAX
 10
-1.0000000000E+20
 20
-1.0000000000E+20
 30
-1.0000000000E+20
  9
$PLIMMIN
 10
0.0
 20
0.0
  9
$PLIMMAX
 10
420.0
 20
297.0
  9
$UNITMODE
 70
     0
  9
$VISRETAIN
 70
     1
  9
$PLINEGEN
 70
     0
  9
$PSLTSCALE
 70
     1
  9
$TREEDEPTH
 70
  3020
  9
$CMLSTYLE
  2
Standard
  9
$CMLJUST
 70
     0
  9
$CMLSCALE
 40
20.0
  9
$PROXYGRAPHICS
 70
     1
  9
$MEASUREMENT
 70
     1
  9
$CELWEIGHT
370
    -1
  9
$ENDCAPS
280
     0
  9
$JOINSTYLE
280
     0
  9
$LWDISPLAY
290
     1
  9
$INSUNITS
 70
     4
  9
$HYPERLINKBASE
  1

  9
$STYLESHEET
  1

  9
$XEDIT
290
     1
  9
$CEPSNTYPE
380
     0
  9
$PSTYLEMODE
290
     1
  9
$FINGERPRINTGUID
  2
{01985A05-BCB4-4B1E-B85B-3BE87B82048C}
  9
$VERSIONGUID
  2
{FAEB1C32-E019-11D5-929B-00C0DF256EC4}
  9
$EXTNAMES
290
     1
  9
$PSVPSCALE
 40
0.0
  9
$OLESTARTUP
290
     0
  0
ENDSEC
  0
SECTION
  2
CLASSES
  0
CLASS
  1
ACDBDICTIONARYWDFLT
  2
AcDbDictionaryWithDefault
  3
ObjectDBX Classes
 90
        0
280
     0
281
     0
  0
CLASS
  1
VISUALSTYLE
  2
AcDbVisualStyle
  3
ObjectDBX Classes
 90
     4095
280
     0
281
     0
  0
CLASS
  1
MATERIAL
  2
AcDbMaterial
  3
ObjectDBX Classes
 90
     1153
280
     0
281
     0
  0
CLASS
  1
SCALE
  2
AcDbScale
  3
ObjectDBX Classes
 90
     1153
280
     0
281
     0
  0
CLASS
  1
TABLESTYLE
  2
AcDbTableStyle
  3
ObjectDBX Classes
 90
     4095
280
     0
281
     0
  0
CLASS
  1
MLEADERSTYLE
  2
AcDbMLeaderStyle
  3
ACDB_MLEADERSTYLE_CLASS
 90
     4095
280
     0
281
     0
  0
CLASS
  1
SUN
  2
AcDbSun
  3
SCENEOE
 90
     1153
280
     0
281
     0
  0
CLASS
  1
ACDBPLACEHOLDER
  2
AcDbPlaceHolder
  3
ObjectDBX Classes
 90
        0
280
     0
281
     0
  0
CLASS
  1
LAYOUT
  2
AcDbLayout
  3
ObjectDBX Classes
 90
        0
280
     0
281
     0
  0
ENDSEC
  0
SECTION
  2
TABLES
  0
TABLE
  2
VPORT
  5
8
330
0
100
AcDbSymbolTable
 70
     1
  0
VPORT
  5
29
330
8
100
AcDbSymbolTableRecord
100
AcDbViewportTableRecord
  2
*Active
 70
     0
 10
0.0
 20
0.0
 11
1.0
 21
1.0
 12
63.8494607368
 22
20.0
 13
0.0
 23
0.0
 14
10.0
 24
10.0
 15
10.0
 25
10.0
 16
0.0
 26
0.0
 36
1.0
 17
0.0
 27
0.0
 37
0.0
 40
40.8
 41
3.1924730368
 42
50.0
 43
0.0
 44
0.0
 50
0.0
 51
0.0
 71
     0
 72
   100
 73
     1
 74
     3
 75
     0
 76
     0
 77
     0
 78
     0
281
     0
 65
     1
110
0.0
120
0.0
130
0.0
111
1.0
121
0.0
131
0.0
112
0.0
122
1.0
132
0.0
 79
     0
146
0.0
  0
ENDTAB
  0
TABLE
  2
LTYPE
  5
5
330
0
100
AcDbSymbolTable
 70
     6
  0
LTYPE
  5
14
330
5
100
AcDbSymbolTableRecord
100
AcDbLinetypeTableRecord
  2
ByBlock
 70
     0
  3

 72
    65
 73
     0
 40
0.0
  0
LTYPE
  5
15
330
5
100
AcDbSymbolTableRecord
100
AcDbLinetypeTableRecord
  2
ByLayer
 70
     0
  3

 72
    65
 73
     0
 40
0.0
  0
LTYPE
  5
16
330
5
100
AcDbSymbolTableRecord
100
AcDbLinetypeTableRecord
  2
Continuous
 70
     0
  3
Solid line
 72
    65
 73
     0
 40
0.0
  0
LTYPE
  5
6E
330
5
100
AcDbSymbolTableRecord
100
AcDbLinetypeTableRecord
  2
HIDDEN
 70
     0
  3
Hidden __ __ __ __ __ __ __ __ __ __ __ __ __ __
 72
    65
 73
     2
 40
1.905
 49
1.27
 74
     0
 49
-0.635
 74
     0
  0
LTYPE
  5
6F
330
5
100
AcDbSymbolTableRecord
100
AcDbLinetypeTableRecord
  2
PHANTOM
 70
     0
  3
Phantom ______  __  __  ______  __  __  ______
 72
    65
 73
     6
 40
12.7
 49
6.35
 74
     0
 49
-1.27
 74
     0
 49
1.27
 74
     0
 49
-1.27
 74
     0
 49
1.27
 74
     0
 49
-1.27
 74
     0
  0
LTYPE
  5
70
330
5
100
AcDbSymbolTableRecord
100
AcDbLinetypeTableRecord
  2
CENTER
 70
     0
  3
Center ____ _ ____ _ ____ _ ____ _ ____ _ ____
 72
    65
 73
     4
 40
10.16
 49
6.35
 74
     0
 49
-1.27
 74
     0
 49
1.27
 74
     0
 49
-1.27
 74
     0
  0
LTYPE
  5
71
330
5
100
AcDbSymbolTableRecord
100
AcDbLinetypeTableRecord
  2
CENTERX2
 70
     0
  3
Center (2x) ________  __  ________  __  _____
 72
    65
 73
     4
 40
20.32
 49
12.7
 74
     0
 49
-2.54
 74
     0
 49
2.54
 74
     0
 49
-2.54
 74
     0
  0
LTYPE
  5
72
330
5
100
AcDbSymbolTableRecord
100
AcDbLinetypeTableRecord
  2
DOT2
 70
     0
  3
Dot (.5x) ........................................
 72
    65
 73
     2
 40
0.635
 49
0.0
 74
     0
 49
-0.635
 74
     0
  0
ENDTAB
  0
TABLE
  2
LAYER
  5
2
330
0
100
AcDbSymbolTable
 70
     1
  0
LAYER
  5
10
330
2
100
AcDbSymbolTableRecord
100
AcDbLayerTableRecord
  2
0
 70
     0
 62
     7
  6
Continuous
370
    -3
390
F
  0
ENDTAB
  0
TABLE
  2
STYLE
  5
3
330
0
100
AcDbSymbolTable
 70
     1
  0
STYLE
  5
11
330
3
100
AcDbSymbolTableRecord
100
AcDbTextStyleTableRecord
  2
Standard
 70
     0
 40
0.0
 41
1.0
 50
0.0
 71
     0
 42
3.5
  3
txt
  4

  0
ENDTAB
  0
TABLE
  2
VIEW
  5
6
330
0
100
AcDbSymbolTable
 70
     0
  0
ENDTAB
  0
TABLE
  2
UCS
  5
7
330
0
100
AcDbSymbolTable
 70
     0
  0
ENDTAB
  0
TABLE
  2
APPID
  5
9
330
0
100
AcDbSymbolTable
 70
     1
  0
APPID
  5
12
330
9
100
AcDbSymbolTableRecord
100
AcDbRegAppTableRecord
  2
ACAD
 70
     0
  0
ENDTAB
  0
TABLE
  2
DIMSTYLE
  5
A
330
0
100
AcDbSymbolTable
 70
     1
100
AcDbDimStyleTable
  0
DIMSTYLE
105
27
330
A
100
AcDbSymbolTableRecord
100
AcDbDimStyleTableRecord
  2
ISO-25
 70
     0
 41
2.5
 42
0.625
 43
3.75
 44
1.25
 73
     0
 74
     0
 77
     1
 78
     8
140
2.5
141
2.5
143
0.0393700787
147
0.625
171
     3
172
     1
178
     0
271
     2
272
     2
274
     3
278
    44
283
     0
284
     8
340
11
  0
ENDTAB
  0
TABLE
  2
BLOCK_RECORD
  5
1
330
0
100
AcDbSymbolTable
 70
     1
  0
BLOCK_RECORD
  5
1F
330
1
100
AcDbSymbolTableRecord
100
AcDbBlockTableRecord
  2
*Model_Space
340
22
  0
BLOCK_RECORD
  5
1B
330
1
100
AcDbSymbolTableRecord
100
AcDbBlockTableRecord
  2
*Paper_Space
340
1E
  0
BLOCK_RECORD
  5
23
330
1
100
AcDbSymbolTableRecord
100
AcDbBlockTableRecord
  2
*Paper_Space0
340
26
  0
ENDTAB
  0
ENDSEC
  0
SECTION
  2
BLOCKS
  0
BLOCK
  5
20
330
1F
100
AcDbEntity
  8
0
100
AcDbBlockBegin
  2
*Model_Space
 70
     0
 10
0.0
 20
0.0
 30
0.0
  3
*Model_Space
  1

  0
ENDBLK
  5
21
330
1F
100
AcDbEntity
  8
0
100
AcDbBlockEnd
  0
BLOCK
  5
1C
330
1B
100
AcDbEntity
 67
     1
  8
0
100
AcDbBlockBegin
  2
*Paper_Space
 70
     0
 10
0.0
 20
0.0
 30
0.0
  3
*Paper_Space
  1

  0
ENDBLK
  5
1D
330
1B
100
AcDbEntity
 67
     1
  8
0
100
AcDbBlockEnd
  0
BLOCK
  5
24
330
23
100
AcDbEntity
  8
0
100
AcDbBlockBegin
  2
*Paper_Space0
 70
     0
 10
0.0
 20
0.0
 30
0.0
  3
*Paper_Space0
  1

  0
ENDBLK
  5
25
330
23
100
AcDbEntity
  8
0
100
AcDbBlockEnd
  0
ENDSEC
  0
SECTION
  2
ENTITIES
  0
LINE
  5
73
330
1F
100
AcDbEntity
  8
0
  6
Continuous
 62
     7
370
    25
100
AcDbLine
 10
53.6014860066
 20
17.9915719587
 30
0.0
 11
53.6014860066
 21
2.6677156099
 31
0.0
  0
LINE
  5
74
330
1F
100
AcDbEntity
  8
0
  6
Continuous
 62
     7
370
    25
100
AcDbLine
 10
63.9264111883
 20
17.9915719587
 30
0.0
 11
53.6014860066
 21
17.9915719587
 31
0.0
  0
LINE
  5
75
330
1F
100
AcDbEntity
  8
0
  6
Continuous
 62
     7
370
    25
100
AcDbLine
 10
63.9264111883
 20
15.56745909
 30
0.0
 11
63.9264111883
 21
17.9915719587
 31
0.0
  0
LINE
  5
76
330
1F
100
AcDbEntity
  8
0
  6
Continuous
 62
     7
370
    25
100
AcDbLine
 10
56.6123881015
 20
15.56745909
 30
0.0
 11
63.9264111883
 21
15.56745909
 31
0.0
  0
LINE
  5
77
330
1F
100
AcDbEntity
  8
0
  6
Continuous
 62
     7
370
    25
100
AcDbLine
 10
56.6123881015
 20
11.7132478886
 30
0.0
 11
56.6123881015
 21
15.56745909
 31
0.0
  0
LINE
  5
78
330
1F
100
AcDbEntity
  8
0
  6
Continuous
 62
     7
370
    25
100
AcDbLine
 10
63.0606565923
 20
11.7132478886
 30
0.0
 11
56.6123881015
 21
11.7132478886
 31
0.0
  0
LINE
  5
79
330
1F
100
AcDbEntity
  8
0
  6
Continuous
 62
     7
370
    25
100
AcDbLine
 10
63.0606565923
 20
9.2698960289
 30
0.0
 11
63.0606565923
 21
11.7132478886
 31
0.0
  0
LINE
  5
7A
330
1F
100
AcDbEntity
  8
0
  6
Continuous
 62
     7
370
    25
100
AcDbLine
 10
56.6123881015
 20
9.2698960289
 30
0.0
 11
63.0606565923
 21
9.2698960289
 31
0.0
  0
LINE
  5
7B
330
1F
100
AcDbEntity
  8
0
  6
Continuous
 62
     7
370
    25
100
AcDbLine
 10
56.6123881015
 20
2.6677156099
 30
0.0
 11
56.6123881015
 21
9.2698960289
 31
0.0
  0
LINE
  5
7C
330
1F
100
AcDbEntity
  8
0
  6
Continuous
 62
     7
370
    25
100
AcDbLine
 10
53.6014860066
 20
2.6677156099
 30
0.0
 11
56.6123881015
 21
2.6677156099
 31
0.0
  0
LINE
  5
7D
330
1F
100
AcDbEntity
  8
0
  6
Continuous
 62
     7
370
    25
100
AcDbLine
 10
115.3626509455
 20
34.0335397141
 30
0.0
 11
123.0325953662
 21
34.0335397141
 31
0.0
  0
LINE
  5
7E
330
1F
100
AcDbEntity
  8
0
  6
Continuous
 62
     7
370
    25
100
AcDbLine
 10
115.3626509455
 20
36.5025435619
 30
0.0
 11
115.3626509455
 21
34.0335397141
 31
0.0
  0
LINE
  5
7F
330
1F
100
AcDbEntity
  8
0
  6
Continuous
 62
     7
370
    25
100
AcDbLine
 10
123.0325953662
 20
36.5025435619
 30
0.0
 11
115.3626509455
 21
36.5025435619
 31
0.0
  0
LINE
  5
80
330
1F
100
AcDbEntity
  8
0
  6
Continuous
 62
     7
370
    25
100
AcDbLine
 10
123.0325953662
 20
34.0335397141
 30
0.0
 11
123.0325953662
 21
36.5025435619
 31
0.0
  0
LINE
  5
81
330
1F
100
AcDbEntity
  8
0
  6
Continuous
 62
     7
370
    25
100
AcDbLine
 10
111.0980079356
 20
36.5025435619
 30
0.0
 11
111.0980079356
 21
21.178687213
 31
0.0
  0
LINE
  5
82
330
1F
100
AcDbEntity
  8
0
  6
Continuous
 62
     7
370
    25
100
AcDbLine
 10
114.1922789916
 20
36.5025435619
 30
0.0
 11
111.0980079356
 21
36.5025435619
 31
0.0
  0
LINE
  5
83
330
1F
100
AcDbEntity
  8
0
  6
Continuous
 62
     7
370
    25
100
AcDbLine
 10
114.1922789916
 20
21.178687213
 30
0.0
 11
114.1922789916
 21
36.5025435619
 31
0.0
  0
LINE
  5
84
330
1F
100
AcDbEntity
  8
0
  6
Continuous
 62
     7
370
    25
100
AcDbLine
 10
111.0980079356
 20
21.178687213
 30
0.0
 11
114.1922789916
 21
21.178687213
 31
0.0
  0
LINE
  5
85
330
1F
100
AcDbEntity
  8
0
  6
Continuous
 62
     7
370
    25
100
AcDbLine
 10
115.2760754859
 20
27.8866820826
 30
0.0
 11
122.4490126385
 21
27.8866820826
 31
0.0
  0
LINE
  5
86
330
1F
100
AcDbEntity
  8
0
  6
Continuous
 62
     7
370
    25
100
AcDbLine
 10
115.2760754859
 20
30.3556859304
 30
0.0
 11
115.2760754859
 21
27.8866820826
 31
0.0
  0
LINE
  5
87
330
1F
100
AcDbEntity
  8
0
  6
Continuous
 62
     7
370
    25
100
AcDbLine
 10
122.4490126385
 20
30.3556859304
 30
0.0
 11
115.2760754859
 21
30.3556859304
 31
0.0
  0
LINE
  5
88
330
1F
100
AcDbEntity
  8
0
  6
Continuous
 62
     7
370
    25
100
AcDbLine
 10
122.4490126385
 20
27.8866820826
 30
0.0
 11
122.4490126385
 21
30.3556859304
 31
0.0
  0
LINE
  5
89
330
1F
100
AcDbEntity
  8
0
  6
Continuous
 62
     7
370
    25
100
AcDbLine
 10
72.8981940014
 20
18.2064073585
 30
0.0
 11
72.8981940014
 21
15.56745909
 31
0.0
  0
SPLINE
  5
8A
330
1F
100
AcDbEntity
  8
0
  6
Continuous
 62
     7
370
    25
100
AcDbSpline
210
0.0
220
0.0
230
1.0
 70
     8
 71
     3
 72
    23
 73
    19
 74
     0
 42
0.000000001
 43
0.00000001
 40
0.0
 40
0.0
 40
0.0
 40
0.0
 40
0.0773415487143129
 40
0.1507143913410322
 40
0.2200738562781293
 40
0.2858822782389749
 40
0.34866776587835
 40
0.4088360953216721
 40
0.4666991353789587
 40
0.5233733728942992
 40
0.578751066836036
 40
0.634482318309622
 40
0.6902925903232011
 40
0.7476286233967769
 40
0.8064941124466123
 40
0.8680649051167374
 40
0.9322347344981887
 40
1.0
 40
1.0
 40
1.0
 40
1.0
 10
79.61901486506264
 20
10.24146507546624
 30
0.0
 10
79.6039763866264
 20
10.54109906886849
 30
0.0
 10
79.57467111459749
 20
11.12499162974173
 30
0.0
 10
79.46200455292824
 20
11.97159242013457
 30
0.0
 10
79.31281893496855
 20
12.76701927023359
 30
0.0
 10
79.10494487614747
 20
13.50672099411823
 30
0.0
 10
78.85840034517216
 20
14.19684971822513
 30
0.0
 10
78.55489538949476
 20
14.83013942306387
 30
0.0
 10
78.20813717082578
 20
15.41330325290477
 30
0.0
 10
77.8101561344063
 20
15.94018961760592
 30
0.0
 10
77.36217349423814
 20
16.41361838723817
 30
0.0
 10
76.86877832816415
 20
16.83462220354127
 30
0.0
 10
76.32358904171238
 20
17.1998186943463
 30
0.0
 10
75.7321638993629
 20
17.51069330572808
 30
0.0
 10
75.09149974263362
 20
17.76814854383118
 30
0.0
 10
74.40440988640998
 20
17.97172582266019
 30
0.0
 10
73.66865056033645
 20
18.1250888636638
 30
0.0
 10
73.15963666068865
 20
18.17881316997146
 30
0.0
 10
72.8981940014457
 20
18.20640735849317
 30
0.0
  0
SPLINE
  5
8B
330
1F
100
AcDbEntity
  8
0
  6
Continuous
 62
     7
370
    25
100
AcDbSpline
210
0.0
220
0.0
230
1.0
 70
     8
 71
     3
 72
    23
 73
    19
 74
     0
 42
0.000000001
 43
0.00000001
 40
0.0
 40
0.0
 40
0.0
 40
0.0
 40
0.0683219698838297
 40
0.1332574200462943
 40
0.1951905663120328
 40
0.2548624898539383
 40
0.3124262569238853
 40
0.3686412129703627
 40
0.4241536855410522
 40
0.4800293155949847
 40
0.5363716836931662
 40
0.5940206893738207
 40
0.6539532756112917
 40
0.7162327913864182
 40
0.7818084387771224
 40
0.8504121734115001
 40
0.9233399856894744
 40
1.0
 40
1.0
 40
1.0
 40
1.0
 10
72.90781349695662
 20
2.449673711635544
 30
0.0
 10
73.16816547541208
 20
2.476236445138372
 30
0.0
 10
73.67596454812497
 20
2.528045275328466
 30
0.0
 10
74.40931198179605
 20
2.67804510341067
 30
0.0
 10
75.09603020200642
 20
2.876450300420442
 30
0.0
 10
75.73688839051428
 20
3.124434726038356
 30
0.0
 10
76.32715628423749
 20
3.431425389193532
 30
0.0
 10
76.86952205127422
 20
3.788460628294721
 30
0.0
 10
77.36417025004457
 20
4.199221568050143
 30
0.0
 10
77.8114713109494
 20
4.661848441518363
 30
0.0
 10
78.20771011828339
 20
5.179271256952483
 30
0.0
 10
78.55512595293996
 20
5.748518135352104
 30
0.0
 10
78.8575559738856
 20
6.368442380780663
 30
0.0
 10
79.10579529755371
 20
7.044152527606959
 30
0.0
 10
79.31181858549611
 20
7.768382891548043
 30
0.0
 10
79.46258730728967
 20
8.54747509691041
 30
0.0
 10
79.57442891822309
 20
9.37608883492667
 30
0.0
 10
79.60390771836376
 20
9.948247890629721
 30
0.0
 10
79.61901486506264
 20
10.24146507546624
 30
0.0
  0
LINE
  5
8C
330
1F
100
AcDbEntity
  8
0
  6
Continuous
 62
     7
370
    25
100
AcDbLine
 10
72.907813497
 20
5.0276985086
 30
0.0
 11
72.907813497
 21
2.4496737116
 31
0.0
  0
SPLINE
  5
8D
330
1F
100
AcDbEntity
  8
0
  6
Continuous
 62
     7
370
    25
100
AcDbSpline
210
0.0
220
0.0
230
1.0
 70
     8
 71
     3
 72
    23
 73
    19
 74
     0
 42
0.000000001
 43
0.00000001
 40
0.0
 40
0.0
 40
0.0
 40
0.0
 40
0.0829704461975252
 40
0.1617364489116938
 40
0.2356945003862964
 40
0.3054040505045381
 40
0.3718198936986253
 40
0.4345188917972354
 40
0.4940267208236854
 40
0.5508891250876613
 40
0.6062327826590579
 40
0.660639577991144
 40
0.7141467117413547
 40
0.7679344642184476
 40
0.8232188752506379
 40
0.8794637722408999
 40
0.9384200546561081
 40
1.0
 40
1.0
 40
1.0
 40
1.0
 10
76.65300374920116
 20
10.17733510539356
 30
0.0
 10
76.64313926089169
 20
9.981613165169474
 30
0.0
 10
76.62391015724546
 20
9.600087296180055
 30
0.0
 10
76.5644462695978
 20
9.046184522357338
 30
0.0
 10
76.47315031235595
 20
8.528572386044171
 30
0.0
 10
76.36275620946168
 20
8.044607432133361
 30
0.0
 10
76.22360184302578
 20
7.595384253014653
 30
0.0
 10
76.0513550422333
 20
7.18414203989016
 30
0.0
 10
75.86182540740641
 20
6.805276481260965
 30
0.0
 10
75.63693364792638
 20
6.466910196111584
 30
0.0
 10
75.39088929290001
 20
6.158825894804386
 30
0.0
 10
75.11308945282516
 20
5.890321736010335
 30
0.0
 10
74.8138435019595
 20
5.6515585529193
 30
0.0
 10
74.48192602504633
 20
5.456622036724597
 30
0.0
 10
74.12710958080105
 20
5.291845035056388
 30
0.0
 10
73.74323256071841
 20
5.168254679933099
 30
0.0
 10
73.33602835929551
 20
5.072141851988351
 30
0.0
 10
73.0526081484638
 20
5.04272638122096
 30
0.0
 10
72.90781349695662
 20
5.027698508557306
 30
0.0
  0
SPLINE
  5
8E
330
1F
100
AcDbEntity
  8
0
  6
Continuous
 62
     7
370
    25
100
AcDbSpline
210
0.0
220
0.0
230
1.0
 70
     8
 71
     3
 72
    23
 73
    19
 74
     0
 42
0.000000001
 43
0.00000001
 40
0.0
 40
0.0
 40
0.0
 40
0.0
 40
0.059999086620955
 40
0.1179604809995833
 40
0.1734986289605792
 40
0.2274284280634797
 40
0.2806587377228708
 40
0.3338581095768081
 40
0.3880101231880728
 40
0.4432071943430997
 40
0.5007274796374704
 40
0.5607572262027567
 40
0.6240154263879132
 40
0.6908324517845696
 40
0.7616243340106615
 40
0.8365810526058385
 40
0.9158015530405472
 40
1.0
 40
1.0
 40
1.0
 40
1.0
 10
72.8981940014457
 20
15.56745909000237
 30
0.0
 10
73.0430018991271
 20
15.55016387485391
 30
0.0
 10
73.32769972079475
 20
15.5161608255943
 30
0.0
 10
73.73764744140162
 20
15.41476690234342
 30
0.0
 10
74.12267651283895
 20
15.28175584795282
 30
0.0
 10
74.47777845418447
 20
15.10621264532517
 30
0.0
 10
74.80701440413306
 20
14.89687022342547
 30
0.0
 10
75.11122976520615
 20
14.65139768323429
 30
0.0
 10
75.38735609436789
 20
14.3680217127387
 30
0.0
 10
75.6362443903974
 20
14.04711168033406
 30
0.0
 10
75.85647972265748
 20
13.68932951822801
 30
0.0
 10
76.05418028210278
 20
13.29641843137422
 30
0.0
 10
76.21729095371538
 20
12.8639912622127
 30
0.0
 10
76.36527774726186
 20
12.3986439739899
 30
0.0
 10
76.47241718241825
 20
11.89308499070105
 30
0.0
 10
76.56427520464436
 20
11.35436730376715
 30
0.0
 10
76.62415569998574
 20
10.7780647425491
 30
0.0
 10
76.64319441836602
 20
10.38160388313047
 30
0.0
 10
76.65300374920116
 20
10.17733510539356
 30
0.0
  0
SPLINE
  5
8F
330
1F
100
AcDbEntity
  8
0
  6
Continuous
 62
     7
370
    25
100
AcDbSpline
210
0.0
220
0.0
230
1.0
 70
     8
 71
     3
 72
    23
 73
    19
 74
     0
 42
0.000000001
 43
0.00000001
 40
0.0
 40
0.0
 40
0.0
 40
0.0
 40
0.065647853443769
 40
0.1278218757969008
 40
0.187677532593823
 40
0.2451805605658164
 40
0.3006412073062098
 40
0.3558968863725609
 40
0.4107179142376353
 40
0.4661529814639891
 40
0.5222661787024269
 40
0.58089767064465
 40
0.6418304838013543
 40
0.7060512927984928
 40
0.7734502903996271
 40
0.8445908339442212
 40
0.9202754361333022
 40
1.0
 40
1.0
 40
1.0
 40
1.0
 10
72.26010079922254
 20
5.027698508557306
 30
0.0
 10
72.09928915797218
 20
5.042566252419185
 30
0.0
 10
71.78617540700685
 20
5.071514996507535
 30
0.0
 10
71.33456644428784
 20
5.169167615101218
 30
0.0
 10
70.90951879165344
 20
5.289919635874155
 30
0.0
 10
70.51740236574409
 20
5.455684221458923
 30
0.0
 10
70.15294809044318
 20
5.65231723591556
 30
0.0
 10
69.81893554762361
 20
5.88646354750519
 30
0.0
 10
69.51542764887827
 20
6.15861313218873
 30
0.0
 10
69.24206997403378
 20
6.463883680282403
 30
0.0
 10
68.99960508817345
 20
6.805654918648146
 30
0.0
 10
68.78463545364805
 20
7.180882356274526
 30
0.0
 10
68.60081104215207
 20
7.594469925443608
 30
0.0
 10
68.45368942419509
 20
8.04479433209834
 30
0.0
 10
68.32647822080459
 20
8.527009691081325
 30
0.0
 10
68.23467842463639
 20
9.04605385292384
 30
0.0
 10
68.17527374829577
 20
9.600072389515992
 30
0.0
 10
68.15603345013245
 20
9.981608110908262
 30
0.0
 10
68.14616321906007
 20
10.17733510539356
 30
0.0
  0
LINE
  5
90
330
1F
100
AcDbEntity
  8
0
  6
Continuous
 62
     7
370
    25
100
AcDbLine
 10
72.2601007992
 20
2.4496737116
 30
0.0
 11
72.2601007992
 21
5.0276985086
 31
0.0
  0
SPLINE
  5
91
330
1F
100
AcDbEntity
  8
0
  6
Continuous
 62
     7
370
    25
100
AcDbSpline
210
0.0
220
0.0
230
1.0
 70
     8
 71
     3
 72
    23
 73
    19
 74
     0
 42
0.000000001
 43
0.00000001
 40
0.0
 40
0.0
 40
0.0
 40
0.0
 40
0.0746879378394146
 40
0.1457581629442692
 40
0.2126890349237182
 40
0.2767891668653482
 40
0.337940332663923
 40
0.3968012418557651
 40
0.4539720474057574
 40
0.5100320003829858
 40
0.565795701652882
 40
0.6219860896022545
 40
0.6790299983898743
 40
0.7377701800262969
 40
0.7986875158304583
 40
0.8624145237836427
 40
0.9294000618420584
 40
1.0
 40
1.0
 40
1.0
 40
1.0
 10
65.1609131121768
 20
10.24146507546624
 30
0.0
 10
65.17715940432956
 20
9.948247962845175
 30
0.0
 10
65.2088650554339
 20
9.376016503310678
 30
0.0
 10
65.32284517358423
 20
8.546972016837
 30
0.0
 10
65.48085014858559
 20
7.767835133428523
 30
0.0
 10
65.6947650973185
 20
7.042189172906836
 30
0.0
 10
65.9624259949498
 20
6.368970574037467
 30
0.0
 10
66.27464902233383
 20
5.745042259155834
 30
0.0
 10
66.64690835235564
 20
5.178598981201553
 30
0.0
 10
67.06537270414893
 20
4.661387013932183
 30
0.0
 10
67.53573029503671
 20
4.195541735178684
 30
0.0
 10
68.0624200807926
 20
3.788482263532743
 30
0.0
 10
68.63687656468277
 20
3.430202887699961
 30
0.0
 10
69.26199944063252
 20
3.124644472177228
 30
0.0
 10
69.93951696643208
 20
2.875333305752069
 30
0.0
 10
70.6671048470738
 20
2.677961396153997
 30
0.0
 10
71.44518486217142
 20
2.527918356932371
 30
0.0
 10
71.98374611350816
 20
2.476208073496334
 30
0.0
 10
72.26010079922254
 20
2.449673711635544
 30
0.0
  0
SPLINE
  5
92
330
1F
100
AcDbEntity
  8
0
  6
Continuous
 62
     7
370
    25
100
AcDbSpline
210
0.0
220
0.0
230
1.0
 70
     8
 71
     3
 72
    23
 73
    19
 74
     0
 42
0.000000001
 43
0.00000001
 40
0.0
 40
0.0
 40
0.0
 40
0.0
 40
0.069769082004207
 40
0.13622170363993
 40
0.1992869470167787
 40
0.2597190338278274
 40
0.3181947550435756
 40
0.3749475552318279
 40
0.4309259624366995
 40
0.4865529913106549
 40
0.5429087333935126
 40
0.6003414664622341
 40
0.6595376247559275
 40
0.7211650756759547
 40
0.7854849283423055
 40
0.8531474765528285
 40
0.9246494679712994
 40
1.0
 40
1.0
 40
1.0
 40
1.0
 10
72.26972029473345
 20
18.21923335250771
 30
0.0
 10
71.99340425558333
 20
18.19015150122499
 30
0.0
 10
71.4539068089379
 20
18.13337019906459
 30
0.0
 10
70.67396539515707
 20
17.98250818838178
 30
0.0
 10
69.94480675882875
 20
17.77844879869636
 30
0.0
 10
69.26828878133546
 20
17.51679473939921
 30
0.0
 10
68.63934889181152
 20
17.20818118447085
 30
0.0
 10
68.06549399793673
 20
16.83815716686811
 30
0.0
 10
67.53836287639157
 20
16.42202002531811
 30
0.0
 10
67.06802042580631
 20
15.9447503508655
 30
0.0
 10
66.64472691136861
 20
15.41792889439037
 30
0.0
 10
66.28025694865384
 20
14.83209573963481
 30
0.0
 10
65.96036284847219
 20
14.19754549551151
 30
0.0
 10
65.69601761835
 20
13.5084140699115
 30
0.0
 10
65.47969641282312
 20
12.76763778837296
 30
0.0
 10
65.32347643053956
 20
11.97205918031394
 30
0.0
 10
65.20860532943306
 20
11.12507000860131
 30
0.0
 10
65.17708585982959
 20
10.54110137737183
 30
0.0
 10
65.1609131121768
 20
10.24146507546624
 30
0.0
  0
LINE
  5
93
330
1F
100
AcDbEntity
  8
0
  6
Continuous
 62
     7
370
    25
100
AcDbLine
 10
72.2697202947
 20
15.56745909
 30
0.0
 11
72.2697202947
 21
18.2192333525
 31
0.0
  0
SPLINE
  5
94
330
1F
100
AcDbEntity
  8
0
  6
Continuous
 62
     7
370
    25
100
AcDbSpline
210
0.0
220
0.0
230
1.0
 70
     8
 71
     3
 72
    23
 73
    19
 74
     0
 42
0.000000001
 43
0.00000001
 40
0.0
 40
0.0
 40
0.0
 40
0.0
 40
0.0810310969648371
 40
0.1572715061901894
 40
0.2295526174909706
 40
0.2979691905759038
 40
0.3626607129532641
 40
0.4243370322775965
 40
0.4830862169434547
 40
0.5400636137320496
 40
0.5953293072706622
 40
0.6498663485405043
 40
0.7044231222024532
 40
0.7596368559753988
 40
0.8161447745972032
 40
0.8748145147579338
 40
0.9359606490341925
 40
1.0
 40
1.0
 40
1.0
 40
1.0
 10
68.14616321906009
 20
10.17733510539356
 30
0.0
 10
68.1561183128446
 20
10.38158262463256
 30
0.0
 10
68.17543993938553
 20
10.77800222389167
 30
0.0
 10
68.23336662891191
 20
11.35495719190219
 30
0.0
 10
68.33241315401187
 20
11.8937276245768
 30
0.0
 10
68.45038869695901
 20
12.39887137071903
 30
0.0
 10
68.60587470078158
 20
12.86585047266037
 30
0.0
 10
68.78735198198576
 20
13.29687860061966
 30
0.0
 10
68.99979870206917
 20
13.69180747673055
 30
0.0
 10
69.24350243893595
 20
14.04899123383028
 30
0.0
 10
69.51847170614448
 20
14.36861394073055
 30
0.0
 10
69.82067524739047
 20
14.65412357529174
 30
0.0
 10
70.15731263902143
 20
14.89798766024691
 30
0.0
 10
70.52176688886144
 20
15.10721834403317
 30
0.0
 10
70.91552010504971
 20
15.28241245325617
 30
0.0
 10
71.3410895608805
 20
15.4145527178686
 30
0.0
 10
71.79454257344793
 20
15.51673737955427
 30
0.0
 10
72.10890592451459
 20
15.55029334431027
 30
0.0
 10
72.26972029473345
 20
15.56745909000237
 30
0.0
  0
SPLINE
  5
95
330
1F
100
AcDbEntity
  8
0
  6
Continuous
 62
     7
370
    25
100
AcDbSpline
210
0.0
220
0.0
230
1.0
 70
     8
 71
     3
 72
    23
 73
    19
 74
     0
 42
0.000000001
 43
0.00000001
 40
0.0
 40
0.0
 40
0.0
 40
0.0
 40
0.0700192287919263
 40
0.1372681354795687
 40
0.2013904112765979
 40
0.2641407001858607
 40
0.3244901798986728
 40
0.3837226264704443
 40
0.4420066674987379
 40
0.4992500964782394
 40
0.5573584045273673
 40
0.6154235948549629
 40
0.6748670840664792
 40
0.7356198517646891
 40
0.7977584824687224
 40
0.8628338812532788
 40
0.9300672681265653
 40
1.0
 40
1.0
 40
1.0
 40
1.0
 10
91.374038379385
 20
8.176480039125925
 30
0.0
 10
91.36591063026971
 20
8.06089598917023
 30
0.0
 10
91.34997670774652
 20
7.834300990877065
 30
0.0
 10
91.30136531323289
 20
7.504395463042547
 30
0.0
 10
91.234612942573
 20
7.189979645958947
 30
0.0
 10
91.14484166991575
 20
6.893215059649323
 30
0.0
 10
91.03617318933505
 20
6.611409705114053
 30
0.0
 10
90.90351050839026
 20
6.348336117162534
 30
0.0
 10
90.75369238941656
 20
6.100641875821163
 30
0.0
 10
90.5810457133087
 20
5.870535000466551
 30
0.0
 10
90.38982078696506
 20
5.656181062819357
 30
0.0
 10
90.17601058041609
 20
5.458750680598909
 30
0.0
 10
89.94108328534185
 20
5.279981541985632
 30
0.0
 10
89.68791662797564
 20
5.115261864998842
 30
0.0
 10
89.41178032143468
 20
4.971571883817347
 30
0.0
 10
89.1182638819754
 20
4.839441320616202
 30
0.0
 10
88.80254760421226
 20
4.727417963843631
 30
0.0
 10
88.5837228030461
 20
4.667204768263686
 30
0.0
 10
88.47215723359619
 20
4.636505691113953
 30
0.0
  0
LINE
  5
96
330
1F
100
AcDbEntity
  8
0
  6
Continuous
 62
     7
370
    25
100
AcDbLine
 10
94.3817339758
 20
8.1764800391
 30
0.0
 11
91.3740383794
 21
8.1764800391
 31
0.0
  0
SPLINE
  5
97
330
1F
100
AcDbEntity
  8
0
  6
Continuous
 62
     7
370
    25
100
AcDbSpline
210
0.0
220
0.0
230
1.0
 70
     8
 71
     3
 72
    23
 73
    19
 74
     0
 42
0.000000001
 43
0.00000001
 40
0.0
 40
0.0
 40
0.0
 40
0.0
 40
0.0695107917997369
 40
0.1353892685680192
 40
0.19805439848372
 40
0.2579925715852918
 40
0.3162062761224586
 40
0.3724208704342303
 40
0.4282303688217353
 40
0.4836412116794742
 40
0.5400398183403576
 40
0.5974323857332551
 40
0.6568536025009948
 40
0.7186921180769126
 40
0.7834674551772853
 40
0.8516320197666701
 40
0.9239090381358686
 40
0.9999999999999999
 40
0.9999999999999999
 40
0.9999999999999999
 40
0.9999999999999999
 10
88.47215723359619
 20
2.189947332841188
 30
0.0
 10
88.69045260585727
 20
2.198237970814081
 30
0.0
 10
89.11563623586628
 20
2.214386016060727
 30
0.0
 10
89.73339669572498
 20
2.295722003316749
 30
0.0
 10
90.3129866222814
 20
2.419683196576227
 30
0.0
 10
90.85618216009637
 20
2.589174587636785
 30
0.0
 10
91.35952418554928
 20
2.807602561331843
 30
0.0
 10
91.82747994888284
 20
3.068651048618682
 30
0.0
 10
92.25422314386451
 20
3.378080420488846
 30
0.0
 10
92.64656018731148
 20
3.730669897616309
 30
0.0
 10
93.00039933971883
 20
4.129027466130997
 30
0.0
 10
93.31176914629278
 20
4.576472834621443
 30
0.0
 10
93.58870493115289
 20
5.065529679004937
 30
0.0
 10
93.82562260758132
 20
5.600720539940301
 30
0.0
 10
94.02402419428638
 20
6.180263263091236
 30
0.0
 10
94.18373875380345
 20
6.805425968361132
 30
0.0
 10
94.30496290233553
 20
7.475408744492118
 30
0.0
 10
94.35570879377966
 20
7.938818805202549
 30
0.0
 10
94.38173397579372
 20
8.176480039125925
 30
0.0
  0
LINE
  5
98
330
1F
100
AcDbEntity
  8
0
  6
Continuous
 62
     7
370
    25
100
AcDbLine
 10
88.4721572336
 20
4.6365056911
 30
0.0
 11
88.4721572336
 21
2.1899473328
 31
0.0
  0
SPLINE
  5
99
330
1F
100
AcDbEntity
  8
0
  6
Continuous
 62
     7
370
    25
100
AcDbSpline
210
0.0
220
0.0
230
1.0
 70
     8
 71
     3
 72
    23
 73
    19
 74
     0
 42
0.000000001
 43
0.00000001
 40
0.0
 40
0.0
 40
0.0
 40
0.0
 40
0.0566998921315994
 40
0.1110378888821717
 40
0.1639618865423803
 40
0.2154125878085028
 40
0.266784756585066
 40
0.3189301966171671
 40
0.3719966280758226
 40
0.4272031648411108
 40
0.484726797601651
 40
0.5458817168455987
 40
0.6105727002698638
 40
0.6791059335215343
 40
0.7519887403430133
 40
0.8298261321615988
 40
0.9124327149448132
 40
1.0
 40
1.0
 40
1.0
 40
1.0
 10
87.04526539947906
 20
4.636505691113953
 30
0.0
 10
86.90234505765561
 20
4.659799170638413
 30
0.0
 10
86.62245787555017
 20
4.705415814583926
 30
0.0
 10
86.22217448683837
 20
4.831002237495383
 30
0.0
 10
85.84896353835525
 20
4.989640244857118
 30
0.0
 10
85.50444643452086
 20
5.190160466138487
 30
0.0
 10
85.19222924003837
 20
5.434109313466302
 30
0.0
 10
84.90461113664833
 20
5.71277482197833
 30
0.0
 10
84.65117140819493
 20
6.03525773765382
 30
0.0
 10
84.42160543794793
 20
6.391395581548021
 30
0.0
 10
84.22686071808752
 20
6.790904549512216
 30
0.0
 10
84.05730439157523
 20
7.227318908243131
 30
0.0
 10
83.91585856689949
 20
7.703280919130176
 30
0.0
 10
83.8097595021966
 20
8.218671973275688
 30
0.0
 10
83.72543023992276
 20
8.771885350440277
 30
0.0
 10
83.67287218341895
 20
9.365101243172882
 30
0.0
 10
83.64653182105418
 20
9.997549792562355
 30
0.0
 10
83.6527808728495
 20
10.4317002432894
 30
0.0
 10
83.65599648113789
 20
10.65510338243503
 30
0.0
  0
LINE
  5
9A
330
1F
100
AcDbEntity
  8
0
  6
Continuous
 62
     7
370
    25
100
AcDbLine
 10
87.054884895
 20
2.1899473328
 30
0.0
 11
87.0452653995
 21
4.6365056911
 31
0.0
  0
SPLINE
  5
9B
330
1F
100
AcDbEntity
  8
0
  6
Continuous
 62
     7
370
    25
100
AcDbSpline
210
0.0
220
0.0
230
1.0
 70
     8
 71
     3
 72
    23
 73
    19
 74
     0
 42
0.000000001
 43
0.00000001
 40
0.0
 40
0.0
 40
0.0
 40
0.0
 40
0.0832079121389291
 40
0.1614632169964124
 40
0.2345422330464906
 40
0.3032458352165612
 40
0.3675694717007471
 40
0.4284718100144099
 40
0.4860480816251931
 40
0.5412428860048009
 40
0.5952236812293616
 40
0.6484687767369656
 40
0.7014928127181812
 40
0.7561642816527134
 40
0.8123698647994293
 40
0.871283097707091
 40
0.9337052228240071
 40
1.0
 40
1.0
 40
1.0
 40
1.0
 10
80.6707463742546
 20
10.37293151411524
 30
0.0
 10
80.67023361803483
 20
10.04259102790201
 30
0.0
 10
80.66923862529131
 20
9.401572208452594
 30
0.0
 10
80.72882318384472
 20
8.471592592088118
 30
0.0
 10
80.84535844175707
 20
7.605489784461645
 30
0.0
 10
81.00402158110334
 20
6.802012268647621
 30
0.0
 10
81.2236041331037
 20
6.063103227745675
 30
0.0
 10
81.49044322878062
 20
5.387121023621291
 30
0.0
 10
81.81243725994868
 20
4.775916979950445
 30
0.0
 10
82.18649181851843
 20
4.227924310550786
 30
0.0
 10
82.61503880265556
 20
3.743943977746123
 30
0.0
 10
83.09523745329874
 20
3.323987320699104
 30
0.0
 10
83.62925969442684
 20
2.970144886207703
 30
0.0
 10
84.21423484415442
 20
2.681314879144881
 30
0.0
 10
84.8527777030557
 20
2.461188561480268
 30
0.0
 10
85.53995960343734
 20
2.29976617744378
 30
0.0
 10
86.2807106150573
 20
2.208173782687159
 30
0.0
 10
86.79170213832995
 20
2.196143466501176
 30
0.0
 10
87.05488489498995
 20
2.189947332841188
 30
0.0
  0
SPLINE
  5
9C
330
1F
100
AcDbEntity
  8
0
  6
Continuous
 62
     7
370
    25
100
AcDbSpline
210
0.0
220
0.0
230
1.0
 70
     8
 71
     3
 72
    23
 73
    19
 74
     0
 42
0.000000001
 43
0.00000001
 40
0.0
 40
0.0
 40
0.0
 40
0.0
 40
0.066994709353984
 40
0.1302559952681277
 40
0.1902591495457972
 40
0.2476843943370903
 40
0.30312839704714
 40
0.357332193123765
 40
0.4114760238313948
 40
0.4658016380770595
 40
0.5215337623608801
 40
0.5792058066164656
 40
0.6394859449331753
 40
0.7033030854991649
 40
0.7707423125242523
 40
0.8425779843990812
 40
0.9189122587531233
 40
1.0
 40
1.0
 40
1.0
 40
1.0
 10
86.99075492491728
 20
18.44689474626573
 30
0.0
 10
86.73052151407417
 20
18.43147476569598
 30
0.0
 10
86.22455675568872
 20
18.40149411594772
 30
0.0
 10
85.49391532810486
 20
18.2767370657419
 30
0.0
 10
84.81280843169702
 20
18.09995025146599
 30
0.0
 10
84.18393850615317
 20
17.85826001631795
 30
0.0
 10
83.60550671735454
 20
17.55939027895439
 30
0.0
 10
83.07749755523167
 20
17.20035486304943
 30
0.0
 10
82.60069846797127
 20
16.78212514122415
 30
0.0
 10
82.17681380099536
 20
16.30230914065726
 30
0.0
 10
81.80750847064371
 20
15.76290470532638
 30
0.0
 10
81.48913699419373
 20
15.16574632836831
 30
0.0
 10
81.22374670041795
 20
14.5094612161014
 30
0.0
 10
81.0054911116792
 20
13.79634053716975
 30
0.0
 10
80.84368681890378
 20
13.02229680640792
 30
0.0
 10
80.73485794489578
 20
12.19050280654074
 30
0.0
 10
80.66763614982013
 20
11.3007277126447
 30
0.0
 10
80.6696889706603
 20
10.68836053081665
 30
0.0
 10
80.6707463742546
 20
10.37293151411524
 30
0.0
  0
LINE
  5
9D
330
1F
100
AcDbEntity
  8
0
  6
Continuous
 62
     7
370
    25
100
AcDbLine
 10
86.9907549249
 20
15.9458259134
 30
0.0
 11
86.9907549249
 21
18.4468947463
 31
0.0
  0
SPLINE
  5
9E
330
1F
100
AcDbEntity
  8
0
  6
Continuous
 62
     7
370
    25
100
AcDbSpline
210
0.0
220
0.0
230
1.0
 70
     8
 71
     3
 72
    23
 73
    19
 74
     0
 42
0.000000001
 43
0.00000001
 40
0.0
 40
0.0
 40
0.0
 40
0.0
 40
0.0867676717961462
 40
0.1681906275941938
 40
0.2454199228527357
 40
0.3177880018365823
 40
0.3859318359334117
 40
0.4502952397611897
 40
0.5111083334023939
 40
0.5692402453246423
 40
0.6245359259467806
 40
0.6780481361180187
 40
0.7302512045541433
 40
0.7822046195118677
 40
0.834261342217181
 40
0.8875481859835588
 40
0.9427621919141627
 40
1.0
 40
1.0
 40
1.0
 40
1.0
 10
83.65599648113789
 20
10.65510338243503
 30
0.0
 10
83.66278593432021
 20
10.85506919657676
 30
0.0
 10
83.67594662387332
 20
11.24268332844949
 30
0.0
 10
83.72411903375648
 20
11.80673367351363
 30
0.0
 10
83.79602230236026
 20
12.33483581395677
 30
0.0
 10
83.8963427435589
 20
12.82701056604755
 30
0.0
 10
84.01606394961308
 20
13.28440606608657
 30
0.0
 10
84.16472864021222
 20
13.70496626015459
 30
0.0
 10
84.33219178472238
 20
14.09381265390054
 30
0.0
 10
84.53365890493171
 20
14.44199475352097
 30
0.0
 10
84.74938777780751
 20
14.76170397984231
 30
0.0
 10
84.99950828928839
 20
15.03741044851449
 30
0.0
 10
85.26999208285343
 20
15.281364582092
 30
0.0
 10
85.56698288047248
 20
15.48674724034838
 30
0.0
 10
85.88718584355725
 20
15.65883681080743
 30
0.0
 10
86.23298591199692
 20
15.79290713680854
 30
0.0
 10
86.6024810014676
 20
15.89459135267025
 30
0.0
 10
86.85978670164107
 20
15.92854404362757
 30
0.0
 10
86.99075492491728
 20
15.94582591343118
 30
0.0
  0
LINE
  5
9F
330
1F
100
AcDbEntity
  8
0
  6
Continuous
 62
     7
370
    25
100
AcDbLine
 10
115.2953144769
 20
21.1883067085
 30
0.0
 11
123.3788972045
 21
21.178687213
 31
0.0
  0
LINE
  5
A0
330
1F
100
AcDbEntity
  8
0
  6
Continuous
 62
     7
370
    25
100
AcDbLine
 10
115.2953144769
 20
23.6573105563
 30
0.0
 11
115.2953144769
 21
21.1883067085
 31
0.0
  0
LINE
  5
A1
330
1F
100
AcDbEntity
  8
0
  6
Continuous
 62
     7
370
    25
100
AcDbLine
 10
123.3788972045
 20
23.6444845623
 30
0.0
 11
115.2953144769
 21
23.6573105563
 31
0.0
  0
LINE
  5
A2
330
1F
100
AcDbEntity
  8
0
  6
Continuous
 62
     7
370
    25
100
AcDbLine
 10
123.3788972045
 20
21.178687213
 30
0.0
 11
123.3788972045
 21
23.6444845623
 31
0.0
  0
LINE
  5
A3
330
1F
100
AcDbEntity
  8
0
  6
Continuous
 62
     7
370
    25
100
AcDbLine
 10
99.952219137
 20
36.3935226128
 30
0.0
 11
99.952219137
 21
21.3935226128
 31
0.0
  0
LINE
  5
A4
330
1F
100
AcDbEntity
  8
0
  6
Continuous
 62
     7
370
    25
100
AcDbLine
 10
102.9182302529
 20
36.3935226128
 30
0.0
 11
99.952219137
 21
36.3935226128
 31
0.0
  0
LINE
  5
A5
330
1F
100
AcDbEntity
  8
0
  6
Continuous
 62
     7
370
    25
100
AcDbLine
 10
102.9182302529
 20
23.8625264606
 30
0.0
 11
102.9182302529
 21
36.3935226128
 31
0.0
  0
LINE
  5
A6
330
1F
100
AcDbEntity
  8
0
  6
Continuous
 62
     7
370
    25
100
AcDbLine
 10
109.8667125102
 20
23.8625264606
 30
0.0
 11
102.9182302529
 21
23.8625264606
 31
0.0
  0
LINE
  5
A7
330
1F
100
AcDbEntity
  8
0
  6
Continuous
 62
     7
370
    25
100
AcDbLine
 10
109.8667125102
 20
21.3935226128
 30
0.0
 11
109.8667125102
 21
23.8625264606
 31
0.0
  0
LINE
  5
A8
330
1F
100
AcDbEntity
  8
0
  6
Continuous
 62
     7
370
    25
100
AcDbLine
 10
99.952219137
 20
21.3935226128
 30
0.0
 11
109.8667125102
 21
21.3935226128
 31
0.0
  0
LINE
  5
A9
330
1F
100
AcDbEntity
  8
0
  6
Continuous
 62
     7
370
    25
100
AcDbLine
 10
87.3282345282
 20
36.3935226128
 30
0.0
 11
87.3282345282
 21
33.9277252635
 31
0.0
  0
LINE
  5
AA
330
1F
100
AcDbEntity
  8
0
  6
Continuous
 62
     7
370
    25
100
AcDbLine
 10
98.7754341862
 20
36.3935226128
 30
0.0
 11
87.3282345282
 21
36.3935226128
 31
0.0
  0
LINE
  5
AB
330
1F
100
AcDbEntity
  8
0
  6
Continuous
 62
     7
370
    25
100
AcDbLine
 10
98.7754341862
 20
33.9277252635
 30
0.0
 11
98.7754341862
 21
36.3935226128
 31
0.0
  0
LINE
  5
AC
330
1F
100
AcDbEntity
  8
0
  6
Continuous
 62
     7
370
    25
100
AcDbLine
 10
90.7239164435
 20
23.8625264606
 30
0.0
 11
98.7754341862
 21
33.9277252635
 31
0.0
  0
LINE
  5
AD
330
1F
100
AcDbEntity
  8
0
  6
Continuous
 62
     7
370
    25
100
AcDbLine
 10
98.7754341862
 20
23.8625264606
 30
0.0
 11
90.7239164435
 21
23.8625264606
 31
0.0
  0
LINE
  5
AE
330
1F
100
AcDbEntity
  8
0
  6
Continuous
 62
     7
370
    25
100
AcDbLine
 10
98.7754341862
 20
21.3935226128
 30
0.0
 11
98.7754341862
 21
23.8625264606
 31
0.0
  0
LINE
  5
AF
330
1F
100
AcDbEntity
  8
0
  6
Continuous
 62
     7
370
    25
100
AcDbLine
 10
86.9594872003
 20
21.3935226128
 30
0.0
 11
98.7754341862
 21
21.3935226128
 31
0.0
  0
LINE
  5
B0
330
1F
100
AcDbEntity
  8
0
  6
Continuous
 62
     7
370
    25
100
AcDbLine
 10
86.9594872003
 20
23.8625264606
 30
0.0
 11
86.9594872003
 21
21.3935226128
 31
0.0
  0
LINE
  5
B1
330
1F
100
AcDbEntity
  8
0
  6
Continuous
 62
     7
370
    25
100
AcDbLine
 10
94.9661139638
 20
33.9277252635
 30
0.0
 11
86.9594872003
 21
23.8625264606
 31
0.0
  0
LINE
  5
B2
330
1F
100
AcDbEntity
  8
0
  6
Continuous
 62
     7
370
    25
100
AcDbLine
 10
87.3282345282
 20
33.9277252635
 30
0.0
 11
94.9661139638
 21
33.9277252635
 31
0.0
  0
LINE
  5
B3
330
1F
100
AcDbEntity
  8
0
  6
Continuous
 62
     7
370
    25
100
AcDbLine
 10
74.3996325615
 20
36.3935226128
 30
0.0
 11
74.3996325615
 21
33.9277252635
 31
0.0
  0
LINE
  5
B4
330
1F
100
AcDbEntity
  8
0
  6
Continuous
 62
     7
370
    25
100
AcDbLine
 10
85.8468322195
 20
36.3935226128
 30
0.0
 11
74.3996325615
 21
36.3935226128
 31
0.0
  0
LINE
  5
B5
330
1F
100
AcDbEntity
  8
0
  6
Continuous
 62
     7
370
    25
100
AcDbLine
 10
85.8468322195
 20
33.9277252635
 30
0.0
 11
85.8468322195
 21
36.3935226128
 31
0.0
  0
LINE
  5
B6
330
1F
100
AcDbEntity
  8
0
  6
Continuous
 62
     7
370
    25
100
AcDbLine
 10
77.7953144769
 20
23.8625264606
 30
0.0
 11
85.8468322195
 21
33.9277252635
 31
0.0
  0
LINE
  5
B7
330
1F
100
AcDbEntity
  8
0
  6
Continuous
 62
     7
370
    25
100
AcDbLine
 10
85.8468322195
 20
23.8625264606
 30
0.0
 11
77.7953144769
 21
23.8625264606
 31
0.0
  0
LINE
  5
B8
330
1F
100
AcDbEntity
  8
0
  6
Continuous
 62
     7
370
    25
100
AcDbLine
 10
85.8468322195
 20
21.3935226128
 30
0.0
 11
85.8468322195
 21
23.8625264606
 31
0.0
  0
LINE
  5
B9
330
1F
100
AcDbEntity
  8
0
  6
Continuous
 62
     7
370
    25
100
AcDbLine
 10
74.0308852336
 20
21.3935226128
 30
0.0
 11
85.8468322195
 21
21.3935226128
 31
0.0
  0
LINE
  5
BA
330
1F
100
AcDbEntity
  8
0
  6
Continuous
 62
     7
370
    25
100
AcDbLine
 10
74.0308852336
 20
23.8625264606
 30
0.0
 11
74.0308852336
 21
21.3935226128
 31
0.0
  0
LINE
  5
BB
330
1F
100
AcDbEntity
  8
0
  6
Continuous
 62
     7
370
    25
100
AcDbLine
 10
82.0375119972
 20
33.9277252635
 30
0.0
 11
74.0308852336
 21
23.8625264606
 31
0.0
  0
LINE
  5
BC
330
1F
100
AcDbEntity
  8
0
  6
Continuous
 62
     7
370
    25
100
AcDbLine
 10
74.3996325615
 20
33.9277252635
 30
0.0
 11
82.0375119972
 21
33.9277252635
 31
0.0
  0
SPLINE
  5
BD
330
1F
100
AcDbEntity
  8
0
  6
Continuous
 62
     7
370
    25
100
AcDbSpline
210
0.0
220
0.0
230
1.0
 70
     8
 71
     3
 72
    23
 73
    19
 74
     0
 42
0.000000001
 43
0.00000001
 40
0.0
 40
0.0
 40
0.0
 40
0.0
 40
0.065647853443769
 40
0.1278218757969009
 40
0.1876775325938231
 40
0.2451805605658165
 40
0.3006412073062084
 40
0.3558968863725612
 40
0.4107179142376355
 40
0.466152981463988
 40
0.5222661787024265
 40
0.5808976706446496
 40
0.6418304838013541
 40
0.706051292798493
 40
0.7734502903996269
 40
0.844590833944221
 40
0.9202754361333021
 40
1.0
 40
1.0
 40
1.0
 40
1.0
 10
65.52404470347743
 20
23.53867011168731
 30
0.0
 10
65.36323306222708
 20
23.55353785554919
 30
0.0
 10
65.05011931126174
 20
23.58248659963754
 30
0.0
 10
64.5985103485427
 20
23.68013921823121
 30
0.0
 10
64.17346269590834
 20
23.80089123900417
 30
0.0
 10
63.78134626999898
 20
23.96665582458892
 30
0.0
 10
63.41689199469806
 20
24.16328883904557
 30
0.0
 10
63.0828794518785
 20
24.39743515063519
 30
0.0
 10
62.77937155313314
 20
24.66958473531872
 30
0.0
 10
62.50601387828869
 20
24.97485528341242
 30
0.0
 10
62.26354899242832
 20
25.31662652177815
 30
0.0
 10
62.04857935790293
 20
25.69185395940453
 30
0.0
 10
61.86475494640695
 20
26.10544152857361
 30
0.0
 10
61.71763332844997
 20
26.55576593522834
 30
0.0
 10
61.59042212505949
 20
27.03798129421133
 30
0.0
 10
61.49862232889127
 20
27.55702545605384
 30
0.0
 10
61.43921765255067
 20
28.111043992646
 30
0.0
 10
61.41997735438736
 20
28.49257971403827
 30
0.0
 10
61.41010712331497
 20
28.68830670852357
 30
0.0
  0
LINE
  5
BE
330
1F
100
AcDbEntity
  8
0
  6
Continuous
 62
     7
370
    25
100
AcDbLine
 10
65.5240447035
 20
20.9606453148
 30
0.0
 11
65.5240447035
 21
23.5386701117
 31
0.0
  0
SPLINE
  5
BF
330
1F
100
AcDbEntity
  8
0
  6
Continuous
 62
     7
370
    25
100
AcDbSpline
210
0.0
220
0.0
230
1.0
 70
     8
 71
     3
 72
    23
 73
    19
 74
     0
 42
0.000000001
 43
0.00000001
 40
0.0
 40
0.0
 40
0.0
 40
0.0
 40
0.0746879378394148
 40
0.1457581629442693
 40
0.2126890349237188
 40
0.2767891668653484
 40
0.3379403326639234
 40
0.3968012418557655
 40
0.4539720474057577
 40
0.510032000382986
 40
0.5657957016528824
 40
0.621986089602255
 40
0.6790299983898747
 40
0.7377701800262978
 40
0.7986875158304593
 40
0.8624145237836438
 40
0.9294000618420583
 40
0.9999999999999999
 40
0.9999999999999999
 40
0.9999999999999999
 40
0.9999999999999999
 10
58.42485701643169
 20
28.75243667859625
 30
0.0
 10
58.44110330858442
 20
28.45921956597518
 30
0.0
 10
58.4728089596888
 20
27.88698810644068
 30
0.0
 10
58.58678907783915
 20
27.05794361996702
 30
0.0
 10
58.74479405284045
 20
26.27880673655853
 30
0.0
 10
58.9587090015734
 20
25.55316077603685
 30
0.0
 10
59.22636989920466
 20
24.87994217716748
 30
0.0
 10
59.53859292658873
 20
24.25601386228584
 30
0.0
 10
59.91085225661055
 20
23.68957058433156
 30
0.0
 10
60.32931660840384
 20
23.17235861706219
 30
0.0
 10
60.79967419929162
 20
22.70651333830869
 30
0.0
 10
61.32636398504749
 20
22.29945386666275
 30
0.0
 10
61.90082046893767
 20
21.94117449082997
 30
0.0
 10
62.52594334488742
 20
21.63561607530724
 30
0.0
 10
63.20346087068697
 20
21.38630490888207
 30
0.0
 10
63.93104875132874
 20
21.18893299928401
 30
0.0
 10
64.7091287664263
 20
21.03888996006237
 30
0.0
 10
65.24769001776303
 20
20.98717967662634
 30
0.0
 10
65.52404470347743
 20
20.96064531476555
 30
0.0
  0
SPLINE
  5
C0
330
1F
100
AcDbEntity
  8
0
  6
Continuous
 62
     7
370
    25
100
AcDbSpline
210
0.0
220
0.0
230
1.0
 70
     8
 71
     3
 72
    23
 73
    19
 74
     0
 42
0.000000001
 43
0.00000001
 40
0.0
 40
0.0
 40
0.0
 40
0.0
 40
0.069769082004207
 40
0.1362217036399302
 40
0.1992869470167777
 40
0.2597190338278276
 40
0.3181947550435753
 40
0.3749475552318276
 40
0.4309259624366997
 40
0.4865529913106547
 40
0.5429087333935125
 40
0.6003414664622335
 40
0.6595376247559275
 40
0.7211650756759548
 40
0.7854849283423055
 40
0.8531474765528284
 40
0.9246494679712994
 40
1.0
 40
1.0
 40
1.0
 40
1.0
 10
65.53366419898833
 20
36.73020495563772
 30
0.0
 10
65.25734815983822
 20
36.70112310435499
 30
0.0
 10
64.71785071319276
 20
36.6443418021946
 30
0.0
 10
63.93790929941198
 20
36.4934797915118
 30
0.0
 10
63.20875066308362
 20
36.28942040182637
 30
0.0
 10
62.53223268559034
 20
36.02776634252923
 30
0.0
 10
61.90329279606642
 20
35.71915278760085
 30
0.0
 10
61.32943790219161
 20
35.34912876999812
 30
0.0
 10
60.80230678064649
 20
34.93299162844814
 30
0.0
 10
60.33196433006123
 20
34.4557219539955
 30
0.0
 10
59.90867081562349
 20
33.92890049752037
 30
0.0
 10
59.54420085290876
 20
33.34306734276481
 30
0.0
 10
59.22430675272707
 20
32.70851709864151
 30
0.0
 10
58.95996152260489
 20
32.01938567304151
 30
0.0
 10
58.74364031707803
 20
31.27860939150295
 30
0.0
 10
58.58742033479445
 20
30.48303078344395
 30
0.0
 10
58.47254923368792
 20
29.63604161173131
 30
0.0
 10
58.44102976408445
 20
29.05207298050183
 30
0.0
 10
58.42485701643169
 20
28.75243667859625
 30
0.0
  0
LINE
  5
C1
330
1F
100
AcDbEntity
  8
0
  6
Continuous
 62
     7
370
    25
100
AcDbLine
 10
65.533664199
 20
34.0784306931
 30
0.0
 11
65.533664199
 21
36.7302049556
 31
0.0
  0
SPLINE
  5
C2
330
1F
100
AcDbEntity
  8
0
  6
Continuous
 62
     7
370
    25
100
AcDbSpline
210
0.0
220
0.0
230
1.0
 70
     8
 71
     3
 72
    23
 73
    19
 74
     0
 42
0.000000001
 43
0.00000001
 40
0.0
 40
0.0
 40
0.0
 40
0.0
 40
0.0810310969648372
 40
0.1572715061901895
 40
0.2295526174909705
 40
0.297969190575904
 40
0.362660712953264
 40
0.4243370322775973
 40
0.4830862169434548
 40
0.5400636137320505
 40
0.595329307270662
 40
0.6498663485405043
 40
0.7044231222024546
 40
0.7596368559753988
 40
0.8161447745972049
 40
0.8748145147579355
 40
0.9359606490341924
 40
1.0
 40
1.0
 40
1.0
 40
1.0
 10
61.41010712331497
 20
28.68830670852357
 30
0.0
 10
61.42006221709951
 20
28.89255422776257
 30
0.0
 10
61.43938384364044
 20
29.28897382702167
 30
0.0
 10
61.49731053316677
 20
29.8659287950322
 30
0.0
 10
61.59635705826679
 20
30.40469922770681
 30
0.0
 10
61.71433260121386
 20
30.90984297384903
 30
0.0
 10
61.86981860503649
 20
31.37682207579038
 30
0.0
 10
62.05129588624067
 20
31.80785020374966
 30
0.0
 10
62.26374260632408
 20
32.20277907986056
 30
0.0
 10
62.50744634319081
 20
32.55996283696027
 30
0.0
 10
62.78241561039938
 20
32.87958554386056
 30
0.0
 10
63.08461915164537
 20
33.16509517842175
 30
0.0
 10
63.42125654327631
 20
33.40895926337691
 30
0.0
 10
63.78571079311632
 20
33.61818994716317
 30
0.0
 10
64.17946400930467
 20
33.79338405638619
 30
0.0
 10
64.60503346513535
 20
33.92552432099859
 30
0.0
 10
65.05848647770289
 20
34.0277089826843
 30
0.0
 10
65.37284982876947
 20
34.06126494744028
 30
0.0
 10
65.53366419898833
 20
34.07843069313237
 30
0.0
  0
LINE
  5
C3
330
1F
100
AcDbEntity
  8
0
  6
Continuous
 62
     7
370
    25
100
AcDbLine
 10
66.1621379057
 20
36.7173789616
 30
0.0
 11
66.1621379057
 21
34.0784306931
 31
0.0
  0
SPLINE
  5
C4
330
1F
100
AcDbEntity
  8
0
  6
Continuous
 62
     7
370
    25
100
AcDbSpline
210
0.0
220
0.0
230
1.0
 70
     8
 71
     3
 72
    23
 73
    19
 74
     0
 42
0.000000001
 43
0.00000001
 40
0.0
 40
0.0
 40
0.0
 40
0.0
 40
0.0773415487143129
 40
0.1507143913410325
 40
0.2200738562781294
 40
0.2858822782389751
 40
0.3486677658783502
 40
0.4088360953216727
 40
0.4666991353789592
 40
0.5233733728942999
 40
0.5787510668360369
 40
0.634482318309623
 40
0.6902925903232007
 40
0.7476286233967779
 40
0.8064941124466121
 40
0.8680649051167374
 40
0.9322347344981898
 40
1.0
 40
1.0
 40
1.0
 40
1.0
 10
72.88295876931754
 20
28.75243667859625
 30
0.0
 10
72.8679202908813
 20
29.05207067199849
 30
0.0
 10
72.83861501885237
 20
29.63596323287173
 30
0.0
 10
72.72594845718315
 20
30.48256402326457
 30
0.0
 10
72.5767628392234
 20
31.2779908733636
 30
0.0
 10
72.36888878040234
 20
32.01769259724822
 30
0.0
 10
72.1223442494271
 20
32.70782132135514
 30
0.0
 10
71.81883929374963
 20
33.34111102619388
 30
0.0
 10
71.4720810750807
 20
33.92427485603478
 30
0.0
 10
71.07410003866117
 20
34.45116122073593
 30
0.0
 10
70.62611739849305
 20
34.9245899903682
 30
0.0
 10
70.13272223241903
 20
35.34559380667125
 30
0.0
 10
69.58753294596731
 20
35.71079029747632
 30
0.0
 10
68.99610780361782
 20
36.02166490885808
 30
0.0
 10
68.3554436468885
 20
36.27912014696118
 30
0.0
 10
67.6683537906649
 20
36.4826974257902
 30
0.0
 10
66.93259446459135
 20
36.63606046679381
 30
0.0
 10
66.42358056494353
 20
36.68978477310147
 30
0.0
 10
66.1621379057006
 20
36.71737896162318
 30
0.0
  0
SPLINE
  5
C5
330
1F
100
AcDbEntity
  8
0
  6
Continuous
 62
     7
370
    25
100
AcDbSpline
210
0.0
220
0.0
230
1.0
 70
     8
 71
     3
 72
    23
 73
    19
 74
     0
 42
0.000000001
 43
0.00000001
 40
0.0
 40
0.0
 40
0.0
 40
0.0
 40
0.0683219698838297
 40
0.1332574200462955
 40
0.1951905663120339
 40
0.2548624898539383
 40
0.3124262569238854
 40
0.3686412129703627
 40
0.4241536855410522
 40
0.4800293155949848
 40
0.5363716836931663
 40
0.5940206893738207
 40
0.6539532756112917
 40
0.716232791386418
 40
0.7818084387771221
 40
0.8504121734115001
 40
0.9233399856894742
 40
1.0
 40
1.0
 40
1.0
 40
1.0
 10
66.17175740121151
 20
20.96064531476555
 30
0.0
 10
66.432109379667
 20
20.98720804826838
 30
0.0
 10
66.93990845237988
 20
21.03901687845848
 30
0.0
 10
67.67325588605092
 20
21.18901670654066
 30
0.0
 10
68.35997410626136
 20
21.38742190355046
 30
0.0
 10
69.00083229476914
 20
21.63540632916835
 30
0.0
 10
69.59110018849236
 20
21.94239699232354
 30
0.0
 10
70.13346595552909
 20
22.29943223142473
 30
0.0
 10
70.62811415429947
 20
22.71019317118016
 30
0.0
 10
71.0754152152043
 20
23.17282004464837
 30
0.0
 10
71.47165402253827
 20
23.69024286008249
 30
0.0
 10
71.81906985719488
 20
24.25948973848211
 30
0.0
 10
72.12149987814047
 20
24.87941398391066
 30
0.0
 10
72.36973920180861
 20
25.55512413073697
 30
0.0
 10
72.575762489751
 20
26.27935449467805
 30
0.0
 10
72.72653121154458
 20
27.05844670004042
 30
0.0
 10
72.83837282247796
 20
27.88706043805667
 30
0.0
 10
72.86785162261866
 20
28.45921949375974
 30
0.0
 10
72.88295876931755
 20
28.75243667859625
 30
0.0
  0
LINE
  5
C6
330
1F
100
AcDbEntity
  8
0
  6
Continuous
 62
     7
370
    25
100
AcDbLine
 10
66.1717574012
 20
23.5386701117
 30
0.0
 11
66.1717574012
 21
20.9606453148
 31
0.0
  0
SPLINE
  5
C7
330
1F
100
AcDbEntity
  8
0
  6
Continuous
 62
     7
370
    25
100
AcDbSpline
210
0.0
220
0.0
230
1.0
 70
     8
 71
     3
 72
    23
 73
    19
 74
     0
 42
0.000000001
 43
0.00000001
 40
0.0
 40
0.0
 40
0.0
 40
0.0
 40
0.0829704461975251
 40
0.1617364489116941
 40
0.2356945003862961
 40
0.3054040505045378
 40
0.3718198936986254
 40
0.4345188917972345
 40
0.4940267208236843
 40
0.5508891250876603
 40
0.606232782659058
 40
0.6606395779911425
 40
0.7141467117413547
 40
0.767934464218446
 40
0.823218875250638
 40
0.8794637722408999
 40
0.938420054656108
 40
0.9999999999999999
 40
0.9999999999999999
 40
0.9999999999999999
 40
0.9999999999999999
 10
69.91694765345606
 20
28.68830670852357
 30
0.0
 10
69.9070831651466
 20
28.49258476829948
 30
0.0
 10
69.88785406150038
 20
28.11105889931006
 30
0.0
 10
69.82839017385267
 20
27.55715612548735
 30
0.0
 10
69.7370942166109
 20
27.03954398917418
 30
0.0
 10
69.62670011371657
 20
26.55557903526337
 30
0.0
 10
69.48754574728069
 20
26.10635585614467
 30
0.0
 10
69.31529894648817
 20
25.69511364302016
 30
0.0
 10
69.12576931166133
 20
25.31624808439097
 30
0.0
 10
68.90087755218127
 20
24.97788179924159
 30
0.0
 10
68.6548331971549
 20
24.6697974979344
 30
0.0
 10
68.37703335708005
 20
24.40129333914033
 30
0.0
 10
68.07778740621438
 20
24.16253015604932
 30
0.0
 10
67.74586992930125
 20
23.9675936398546
 30
0.0
 10
67.39105348505593
 20
23.8028166381864
 30
0.0
 10
67.00717646497331
 20
23.67922628306311
 30
0.0
 10
66.59997226355038
 20
23.58311345511836
 30
0.0
 10
66.31655205271869
 20
23.55369798435097
 30
0.0
 10
66.17175740121151
 20
23.53867011168731
 30
0.0
  0
SPLINE
  5
C8
330
1F
100
AcDbEntity
  8
0
  6
Continuous
 62
     7
370
    25
100
AcDbSpline
210
0.0
220
0.0
230
1.0
 70
     8
 71
     3
 72
    23
 73
    19
 74
     0
 42
0.000000001
 43
0.00000001
 40
0.0
 40
0.0
 40
0.0
 40
0.0
 40
0.0599990866209531
 40
0.1179604809995832
 40
0.1734986289605774
 40
0.2274284280634779
 40
0.2806587377228706
 40
0.333858109576808
 40
0.3880101231880717
 40
0.4432071943430999
 40
0.50072747963747
 40
0.5607572262027566
 40
0.6240154263879126
 40
0.6908324517845688
 40
0.7616243340106617
 40
0.8365810526058381
 40
0.9158015530405471
 40
1.0
 40
1.0
 40
1.0
 40
1.0
 10
66.16213790570062
 20
34.07843069313238
 30
0.0
 10
66.306945803382
 20
34.06113547798392
 30
0.0
 10
66.59164362504967
 20
34.02713242872432
 30
0.0
 10
67.00159134565651
 20
33.92573850547343
 30
0.0
 10
67.38662041709382
 20
33.79272745108282
 30
0.0
 10
67.74172235843938
 20
33.61718424845518
 30
0.0
 10
68.07095830838797
 20
33.40784182655548
 30
0.0
 10
68.37517366946103
 20
33.1623692863643
 30
0.0
 10
68.65129999862279
 20
32.8789933158687
 30
0.0
 10
68.9001882946523
 20
32.55808328346406
 30
0.0
 10
69.12042362691237
 20
32.20030112135801
 30
0.0
 10
69.31812418635771
 20
31.80739003450424
 30
0.0
 10
69.48123485797024
 20
31.37496286534269
 30
0.0
 10
69.62922165151673
 20
30.9096155771199
 30
0.0
 10
69.73636108667317
 20
30.40405659383106
 30
0.0
 10
69.82821910889926
 20
29.86533890689715
 30
0.0
 10
69.88809960424061
 20
29.2890363456791
 30
0.0
 10
69.90713832262094
 20
28.89257548626048
 30
0.0
 10
69.91694765345608
 20
28.68830670852357
 30
0.0
  0
LINE
  5
C9
330
1F
100
AcDbEntity
  8
0
  6
Continuous
 62
     7
370
    25
100
AcDbLine
 10
53.7850536817
 20
21.3935226128
 30
0.0
 11
56.8600857467
 21
21.3935226128
 31
0.0
  0
LINE
  5
CA
330
1F
100
AcDbEntity
  8
0
  6
Continuous
 62
     7
370
    25
100
AcDbLine
 10
53.7850536817
 20
36.3935226128
 30
0.0
 11
53.7850536817
 21
21.3935226128
 31
0.0
  0
LINE
  5
CB
330
1F
100
AcDbEntity
  8
0
  6
Continuous
 62
     7
370
    25
100
AcDbLine
 10
56.8600857467
 20
36.3935226128
 30
0.0
 11
53.7850536817
 21
36.3935226128
 31
0.0
  0
LINE
  5
CC
330
1F
100
AcDbEntity
  8
0
  6
Continuous
 62
     7
370
    25
100
AcDbLine
 10
56.8600857467
 20
21.3935226128
 30
0.0
 11
56.8600857467
 21
36.3935226128
 31
0.0
  0
LINE
  5
CD
330
1F
100
AcDbEntity
  8
0
  6
Continuous
 62
     7
370
    25
100
AcDbLine
 10
48.4173751866
 20
30.7244332583
 30
0.0
 11
53.1373409839
 21
22.2592772087
 31
0.0
  0
LINE
  5
CE
330
1F
100
AcDbEntity
  8
0
  6
Continuous
 62
     7
370
    25
100
AcDbLine
 10
48.4173751866
 20
35.5277680168
 30
0.0
 11
48.4173751866
 21
30.7244332583
 31
0.0
  0
LINE
  5
CF
330
1F
100
AcDbEntity
  8
0
  6
Continuous
 62
     7
370
    25
100
AcDbLine
 10
53.1373409839
 20
26.9792430061
 30
0.0
 11
48.4173751866
 21
35.5277680168
 31
0.0
  0
LINE
  5
D0
330
1F
100
AcDbEntity
  8
0
  6
Continuous
 62
     7
370
    25
100
AcDbLine
 10
53.1373409839
 20
22.2592772087
 30
0.0
 11
53.1373409839
 21
26.9792430061
 31
0.0
  0
LINE
  5
D1
330
1F
100
AcDbEntity
  8
0
  6
Continuous
 62
     7
370
    25
100
AcDbLine
 10
38.8355931671
 20
4.0722755499
 30
0.0
 11
40.1702772774
 21
5.006519421
 31
0.0
  0
LINE
  5
D2
330
1F
100
AcDbEntity
  8
0
  6
Continuous
 62
     7
370
    25
100
AcDbLine
 10
35.5908736659
 20
4.2351963725
 30
0.0
 11
38.8355931671
 21
4.0722755499
 31
0.0
  0
LINE
  5
D3
330
1F
100
AcDbEntity
  8
0
  6
Continuous
 62
     7
370
    25
100
AcDbLine
 10
36.5485116826
 20
7.3396572379
 30
0.0
 11
35.5908736659
 21
4.2351963725
 31
0.0
  0
LINE
  5
D4
330
1F
100
AcDbEntity
  8
0
  6
Continuous
 62
     7
370
    25
100
AcDbLine
 10
37.8831957929
 20
8.273901109
 30
0.0
 11
36.5485116826
 21
7.3396572379
 31
0.0
  0
LINE
  5
D5
330
1F
100
AcDbEntity
  8
0
  6
Continuous
 62
     7
370
    25
100
AcDbLine
 10
37.1656696987
 20
5.9478325521
 30
0.0
 11
37.8831957929
 21
8.273901109
 31
0.0
  0
LINE
  5
D6
330
1F
100
AcDbEntity
  8
0
  6
Continuous
 62
     7
370
    25
100
AcDbLine
 10
43.7647458578
 20
10.5670127825
 30
0.0
 11
37.1656696987
 21
5.9478325521
 31
0.0
  0
LINE
  5
D7
330
1F
100
AcDbEntity
  8
0
  6
Continuous
 62
     7
370
    25
100
AcDbLine
 10
44.3381937812
 20
9.7477707675
 30
0.0
 11
43.7647458578
 21
10.5670127825
 31
0.0
  0
LINE
  5
D8
330
1F
100
AcDbEntity
  8
0
  6
Continuous
 62
     7
370
    25
100
AcDbLine
 10
37.739117622
 20
5.1285905371
 30
0.0
 11
44.3381937812
 21
9.7477707675
 31
0.0
  0
LINE
  5
D9
330
1F
100
AcDbEntity
  8
0
  6
Continuous
 62
     7
370
    25
100
AcDbLine
 10
40.1702772774
 20
5.006519421
 30
0.0
 11
37.739117622
 21
5.1285905371
 31
0.0
  0
SPLINE
  5
DA
330
1F
100
AcDbEntity
  8
0
  6
Continuous
 62
     7
370
    25
100
AcDbSpline
210
0.0
220
0.0
230
1.0
 70
     8
 71
     3
 72
    23
 73
    19
 74
     0
 42
0.000000001
 43
0.00000001
 40
0.0
 40
0.0
 40
0.0
 40
0.0
 40
0.0792409937639575
 40
0.1542210866283191
 40
0.2248735484389847
 40
0.2922035847587254
 40
0.3555905834253799
 40
0.4164096776675658
 40
0.4747374298296658
 40
0.5313679402249264
 40
0.5869295253573711
 40
0.6418072305782091
 40
0.6969955799226273
 40
0.7531661440632476
 40
0.8113332737464768
 40
0.8711995442409449
 40
0.9337395708542305
 40
1.0
 40
1.0
 40
1.0
 40
1.0
 10
114.8744659125188
 20
18.28336332258039
 30
0.0
 10
114.6691497798138
 20
18.27820497076594
 30
0.0
 10
114.2695576547779
 20
18.26816563904826
 30
0.0
 10
113.688563291232
 20
18.21502869211807
 30
0.0
 10
113.144188912799
 20
18.12278728906916
 30
0.0
 10
112.6341666461108
 20
18.00927876471952
 30
0.0
 10
112.1630262953432
 20
17.85121411393814
 30
0.0
 10
111.7244795171089
 20
17.67224139331192
 30
0.0
 10
111.3247223973404
 20
17.45178922495617
 30
0.0
 10
110.9600247739933
 20
17.20105526991041
 30
0.0
 10
110.6307551139496
 20
16.91839946133765
 30
0.0
 10
110.3402798377272
 20
16.60108860488252
 30
0.0
 10
110.0855873124821
 20
16.2526059879248
 30
0.0
 10
109.8660471777792
 20
15.8710604958155
 30
0.0
 10
109.684020566864
 20
15.45703256129054
 30
0.0
 10
109.5392351603578
 20
15.01128155731619
 30
0.0
 10
109.4336648977779
 20
14.53304828420123
 30
0.0
 10
109.3909053240261
 20
14.2019020203575
 30
0.0
 10
109.3689079817792
 20
14.03154630676167
 30
0.0
  0
LINE
  5
DB
330
1F
100
AcDbEntity
  8
0
  6
Continuous
 62
     7
370
    25
100
AcDbLine
 10
114.8744659125
 20
15.8913154389
 30
0.0
 11
114.8744659125
 21
18.2833633226
 31
0.0
  0
SPLINE
  5
DC
330
1F
100
AcDbEntity
  8
0
  6
Continuous
 62
     7
370
    25
100
AcDbSpline
210
0.0
220
0.0
230
1.0
 70
     8
 71
     3
 72
    15
 73
    11
 74
     0
 42
0.000000001
 43
0.00000001
 40
0.0
 40
0.0
 40
0.0
 40
0.0
 40
0.109599807373691
 40
0.2139537554651741
 40
0.3178793839883294
 40
0.4282279841791201
 40
0.5478151249318614
 40
0.6815033551141609
 40
0.831907049999333
 40
1.0
 40
1.0
 40
1.0
 40
1.0
 10
112.0944317098681
 20
14.00910081723623
 30
0.0
 10
112.115071649435
 20
14.14215455567588
 30
0.0
 10
112.1553636233784
 20
14.40189357985849
 30
0.0
 10
112.3185151145848
 20
14.76083648238506
 30
0.0
 10
112.5611386591528
 20
15.06997239659665
 30
0.0
 10
112.8785449837556
 20
15.33214665455768
 30
0.0
 10
113.2726928831356
 20
15.54390636056012
 30
0.0
 10
113.7402069292547
 20
15.70807303765059
 30
0.0
 10
114.2817567469727
 20
15.82898224128087
 30
0.0
 10
114.6697138315535
 20
15.8697823621745
 30
0.0
 10
114.8744659125188
 20
15.89131543886941
 30
0.0
  0
SPLINE
  5
DD
330
1F
100
AcDbEntity
  8
0
  6
Continuous
 62
     7
370
    25
100
AcDbSpline
210
0.0
220
0.0
230
1.0
 70
     8
 71
     3
 72
    15
 73
    11
 74
     0
 42
0.000000001
 43
0.00000001
 40
0.0
 40
0.0
 40
0.0
 40
0.0
 40
0.1480386582109421
 40
0.2797537162138667
 40
0.4011174168966036
 40
0.5154489077504686
 40
0.627825982627029
 40
0.7420530372948078
 40
0.8652891898666527
 40
1.0
 40
1.0
 40
1.0
 40
1.0
 10
113.7169199527069
 20
12.30003711479929
 30
0.0
 10
113.5888807896769
 20
12.32090847803238
 30
0.0
 10
113.3469208036067
 20
12.3603498070573
 30
0.0
 10
113.0130198703262
 20
12.47391839437578
 30
0.0
 10
112.7279766623397
 20
12.62706379649892
 30
0.0
 10
112.4957969476255
 20
12.82746253007229
 30
0.0
 10
112.3107370436043
 20
13.06475678393967
 30
0.0
 10
112.1858270035616
 20
13.34671420834511
 30
0.0
 10
112.1071023550349
 20
13.66493202864376
 30
0.0
 10
112.098778683221
 20
13.89102533384839
 30
0.0
 10
112.0944317098681
 20
14.00910081723623
 30
0.0
  0
LINE
  5
DE
330
1F
100
AcDbEntity
  8
0
  6
Continuous
 62
     7
370
    25
100
AcDbLine
 10
114.8744659125
 20
12.1268861956
 30
0.0
 11
113.7169199527
 21
12.3000371148
 31
0.0
  0
LINE
  5
DF
330
1F
100
AcDbEntity
  8
0
  6
Continuous
 62
     7
370
    25
100
AcDbLine
 10
114.8744659125
 20
9.430220954
 30
0.0
 11
114.8744659125
 21
12.1268861956
 31
0.0
  0
SPLINE
  5
E0
330
1F
100
AcDbEntity
  8
0
  6
Continuous
 62
     7
370
    25
100
AcDbSpline
210
0.0
220
0.0
230
1.0
 70
     8
 71
     3
 72
    15
 73
    11
 74
     0
 42
0.000000001
 43
0.00000001
 40
0.0
 40
0.0
 40
0.0
 40
0.0
 40
0.1531544176065592
 40
0.2975573907952446
 40
0.4340642409615674
 40
0.5630618728282862
 40
0.6836088258979822
 40
0.7967535564524367
 40
0.9017886284304149
 40
1.0
 40
1.0
 40
1.0
 40
1.0
 10
111.9661717697228
 20
10.00418418619732
 30
0.0
 10
112.1113713195229
 20
9.959826913555288
 30
0.0
 10
112.3934735262916
 20
9.873647001043308
 30
0.0
 10
112.8076637943212
 20
9.75677117788193
 30
0.0
 10
113.2026438240287
 20
9.660970985416373
 30
0.0
 10
113.5769116637049
 20
9.581047997678583
 30
0.0
 10
113.9304293120093
 20
9.51481576609338
 30
0.0
 10
114.2634447533458
 20
9.471111972534697
 30
0.0
 10
114.575722668677
 20
9.440210668863973
 30
0.0
 10
114.7771389159921
 20
9.433475484347861
 30
0.0
 10
114.8744659125188
 20
9.430220954046831
 30
0.0
  0
SPLINE
  5
E1
330
1F
100
AcDbEntity
  8
0
  6
Continuous
 62
     7
370
    25
100
AcDbSpline
210
0.0
220
0.0
230
1.0
 70
     8
 71
     3
 72
    23
 73
    19
 74
     0
 42
0.000000001
 43
0.00000001
 40
0.0
 40
0.0
 40
0.0
 40
0.0
 40
0.072336477404488
 40
0.1414389241126415
 40
0.2076080404578672
 40
0.2700991259750847
 40
0.3311147260128786
 40
0.3899601294500876
 40
0.4475049911659317
 40
0.5042688173996159
 40
0.5611328788862837
 40
0.6178125001622126
 40
0.6761594305856377
 40
0.7354402710650656
 40
0.7978283839837575
 40
0.8618039976843483
 40
0.9294583948315701
 40
1.0
 40
1.0
 40
1.0
 40
1.0
 10
109.3689079817792
 20
14.03154630676167
 30
0.0
 10
109.3573751522603
 20
13.90445077951271
 30
0.0
 10
109.3348251047925
 20
13.65594193199028
 30
0.0
 10
109.3339369721152
 20
13.2895645247293
 30
0.0
 10
109.3494415884439
 20
12.94080967711368
 30
0.0
 10
109.3997167220013
 20
12.60966222242503
 30
0.0
 10
109.4715326898131
 20
12.29576903009823
 30
0.0
 10
109.5730522556346
 20
11.99947604761086
 30
0.0
 10
109.6927061324767
 20
11.71797992432478
 30
0.0
 10
109.8460388986063
 20
11.45713995065108
 30
0.0
 10
110.0222215470919
 20
11.21348483576991
 30
0.0
 10
110.2231461406821
 20
10.98579105946996
 30
0.0
 10
110.4508981611944
 20
10.77852512903907
 30
0.0
 10
110.7049339937582
 20
10.58765729992256
 30
0.0
 10
110.9814536074453
 20
10.41156916420864
 30
0.0
 10
111.2873752702779
 20
10.25744259392972
 30
0.0
 10
111.6166402113306
 20
10.11989222036594
 30
0.0
 10
111.8480497049775
 20
10.04328701275319
 30
0.0
 10
111.9661717697227
 20
10.00418418619732
 30
0.0
  0
SPLINE
  5
E2
330
1F
100
AcDbEntity
  8
0
  6
Continuous
 62
     7
370
    25
100
AcDbSpline
210
0.0
220
0.0
230
1.0
 70
     8
 71
     3
 72
    23
 73
    19
 74
     0
 42
0.000000001
 43
0.00000001
 40
0.0
 40
0.0
 40
0.0
 40
0.0
 40
0.068142344503389
 40
0.1329375509574684
 40
0.1944156231153426
 40
0.2536027470976141
 40
0.3106048295726043
 40
0.3664386545647959
 40
0.4214339676046163
 40
0.4766355281148619
 40
0.5327580728990543
 40
0.5904733878647715
 40
0.6503744275178923
 40
0.7131987659576744
 40
0.7791145227546883
 40
0.8482830968198867
 40
0.9222357063299741
 40
1.0
 40
1.0
 40
1.0
 40
1.0
 10
120.4826317953747
 20
13.4030726000494
 30
0.0
 10
120.4801976397249
 20
13.58064787055438
 30
0.0
 10
120.4754488936538
 20
13.92707595053287
 30
0.0
 10
120.4199125616129
 20
14.43122422310996
 30
0.0
 10
120.3285792341336
 20
14.90626874390323
 30
0.0
 10
120.1937175280976
 20
15.34995087207473
 30
0.0
 10
120.0195982703666
 20
15.76365465586342
 30
0.0
 10
119.8081124588984
 20
16.14741042134125
 30
0.0
 10
119.5551672735675
 20
16.49931315277068
 30
0.0
 10
119.2657822113497
 20
16.82311115550257
 30
0.0
 10
118.9319632555146
 20
17.11187133603248
 30
0.0
 10
118.5610959799845
 20
17.37237381387813
 30
0.0
 10
118.1515691150497
 20
17.60470859011272
 30
0.0
 10
117.7009131560144
 20
17.80257668050266
 30
0.0
 10
117.2120155074069
 20
17.96778593449021
 30
0.0
 10
116.6850035713565
 20
18.1061267760102
 30
0.0
 10
116.1194785397981
 20
18.21547550593247
 30
0.0
 10
115.726705551011
 20
18.26035817800694
 30
0.0
 10
115.5253851087565
 20
18.28336332258039
 30
0.0
  0
LINE
  5
E3
330
1F
100
AcDbEntity
  8
0
  6
Continuous
 62
     7
370
    25
100
AcDbLine
 10
117.7122170882
 20
13.4030726
 30
0.0
 11
120.4826317954
 21
13.4030726
 31
0.0
  0
SPLINE
  5
E4
330
1F
100
AcDbEntity
  8
0
  6
Continuous
 62
     7
370
    25
100
AcDbSpline
210
0.0
220
0.0
230
1.0
 70
     8
 71
     3
 72
    15
 73
    11
 74
     0
 42
0.000000001
 43
0.00000001
 40
0.0
 40
0.0
 40
0.0
 40
0.0
 40
0.1294305585006458
 40
0.2497374280427576
 40
0.3633760072614143
 40
0.4763826073741046
 40
0.5926922143324098
 40
0.7166198682428081
 40
0.8517527949033771
 40
0.9999999999999999
 40
0.9999999999999999
 40
0.9999999999999999
 40
0.9999999999999999
 10
115.5253851087565
 20
15.8913154388694
 30
0.0
 10
115.6804371835617
 20
15.86639686581355
 30
0.0
 10
115.9796115580147
 20
15.81831625473102
 30
0.0
 10
116.3963910772406
 20
15.66695889311399
 30
0.0
 10
116.7579560479175
 20
15.44755818187646
 30
0.0
 10
117.065113300457
 20
15.16347657352806
 30
0.0
 10
117.3150310982706
 20
14.81260892259517
 30
0.0
 10
117.5068592395153
 20
14.3981423794256
 30
0.0
 10
117.6451754170354
 20
13.92224832765277
 30
0.0
 10
117.6891908812927
 20
13.58138927278895
 30
0.0
 10
117.7122170882349
 20
13.4030726000494
 30
0.0
  0
LINE
  5
E5
330
1F
100
AcDbEntity
  8
0
  6
Continuous
 62
     7
370
    25
100
AcDbLine
 10
115.5253851088
 20
18.2833633226
 30
0.0
 11
115.5253851088
 21
15.8913154389
 31
0.0
  0
LINE
  5
E6
330
1F
100
AcDbEntity
  8
0
  6
Continuous
 62
     7
370
    25
100
AcDbLine
 10
115.5157656132
 20
9.3212000049
 30
0.0
 11
116.3141837407
 21
9.1159841007
 31
0.0
  0
LINE
  5
E7
330
1F
100
AcDbEntity
  8
0
  6
Continuous
 62
     7
370
    25
100
AcDbLine
 10
115.5157656132
 20
12.0178652465
 30
0.0
 11
115.5157656132
 21
9.3212000049
 31
0.0
  0
SPLINE
  5
E8
330
1F
100
AcDbEntity
  8
0
  6
Continuous
 62
     7
370
    25
100
AcDbSpline
210
0.0
220
0.0
230
1.0
 70
     8
 71
     3
 72
    15
 73
    11
 74
     0
 42
0.000000001
 43
0.00000001
 40
0.0
 40
0.0
 40
0.0
 40
0.0
 40
0.1613998576341005
 40
0.312363048462337
 40
0.4519409289477251
 40
0.5818739050941898
 40
0.7017460871412714
 40
0.8113657491726286
 40
0.9106907585778614
 40
0.9999999999999999
 40
0.9999999999999999
 40
0.9999999999999999
 40
0.9999999999999999
 10
118.9338930181195
 20
10.95651424177663
 30
0.0
 10
118.7559004182345
 20
11.03151968576666
 30
0.0
 10
118.411424828734
 20
11.17668046520867
 30
0.0
 10
117.9048528561811
 20
11.36628643207824
 30
0.0
 10
117.4318882880504
 20
11.53781045478664
 30
0.0
 10
116.9905906402068
 20
11.68777465767304
 30
0.0
 10
116.5765467309855
 20
11.80464334618579
 30
0.0
 10
116.1954220364992
 20
11.90241862708834
 30
0.0
 10
115.8457163627709
 20
11.97529610116858
 30
0.0
 10
115.6217859086239
 20
12.00418686154975
 30
0.0
 10
115.5157656132456
 20
12.01786524647949
 30
0.0
  0
SPLINE
  5
E9
330
1F
100
AcDbEntity
  8
0
  6
Continuous
 62
     7
370
    25
100
AcDbSpline
210
0.0
220
0.0
230
1.0
 70
     8
 71
     3
 72
    23
 73
    19
 74
     0
 42
0.000000001
 43
0.00000001
 40
0.0
 40
0.0
 40
0.0
 40
0.0
 40
0.0797336386415197
 40
0.1561667089876554
 40
0.228896333051076
 40
0.2987389713066939
 40
0.3652956117672276
 40
0.4294199628997269
 40
0.4907943260878496
 40
0.5503243950573566
 40
0.6080353726417379
 40
0.6643708341962129
 40
0.7198006455170579
 40
0.7749704197336811
 40
0.8298551120082601
 40
0.8858047096958952
 40
0.9419309363887456
 40
0.9999999999999999
 40
0.9999999999999999
 40
0.9999999999999999
 40
0.9999999999999999
 10
120.75197766968
 20
6.39046037260177
 30
0.0
 10
120.7654493117121
 20
6.529301051279083
 30
0.0
 10
120.7918349381135
 20
6.80123510862383
 30
0.0
 10
120.8015888396054
 20
7.20162854314098
 30
0.0
 10
120.8015745145887
 20
7.584780411402088
 30
0.0
 10
120.7750362547136
 20
7.949861938849261
 30
0.0
 10
120.7305113402777
 20
8.29786466306539
 30
0.0
 10
120.6672118385863
 20
8.628041499253818
 30
0.0
 10
120.5830196240953
 20
8.94068106925619
 30
0.0
 10
120.4825187668701
 20
9.236956511978523
 30
0.0
 10
120.3545534651732
 20
9.512568491516186
 30
0.0
 10
120.2158337550112
 20
9.774922564205454
 30
0.0
 10
120.0497232775476
 20
10.0156578427383
 30
0.0
 10
119.8676828244249
 20
10.24102201632986
 30
0.0
 10
119.663512188736
 20
10.44817647346184
 30
0.0
 10
119.4394057884636
 20
10.63580322724895
 30
0.0
 10
119.1968339885347
 20
10.80905729776663
 30
0.0
 10
119.0225285111278
 20
10.90680757602125
 30
0.0
 10
118.9338930181195
 20
10.95651424177663
 30
0.0
  0
SPLINE
  5
EA
330
1F
100
AcDbEntity
  8
0
  6
Continuous
 62
     7
370
    25
100
AcDbSpline
210
0.0
220
0.0
230
1.0
 70
     8
 71
     3
 72
    23
 73
    19
 74
     0
 42
0.000000001
 43
0.00000001
 40
0.0
 40
0.0
 40
0.0
 40
0.0
 40
0.0835165144901068
 40
0.1625219499116233
 40
0.2368411850241963
 40
0.3072932707652643
 40
0.3739625456929039
 40
0.4369202720804207
 40
0.4970180247561786
 40
0.5547501707539304
 40
0.6100477510309961
 40
0.664465418003395
 40
0.7177534885081105
 40
0.771606563879008
 40
0.8259387327843393
 40
0.8816373289205844
 40
0.939480733734194
 40
0.9999999999999999
 40
0.9999999999999999
 40
0.9999999999999999
 40
0.9999999999999999
 10
115.5253851087565
 20
2.504184186197323
 30
0.0
 10
115.7254448862396
 20
2.520520434931957
 30
0.0
 10
116.1147583691352
 20
2.552310542730437
 30
0.0
 10
116.6789869123869
 20
2.628999396609633
 30
0.0
 10
117.2076570236366
 20
2.729677917949443
 30
0.0
 10
117.6984083986933
 20
2.862718235449794
 30
0.0
 10
118.1551389967508
 20
3.014182762526739
 30
0.0
 10
118.5744854005717
 20
3.19457319591369
 30
0.0
 10
118.9581657127539
 20
3.39962825291989
 30
0.0
 10
119.3050233308314
 20
3.63047885429165
 30
0.0
 10
119.6174797328981
 20
3.885325422026912
 30
0.0
 10
119.8897631420991
 20
4.168110540589644
 30
0.0
 10
120.1277442036464
 20
4.476005571384079
 30
0.0
 10
120.3253005258762
 20
4.810900962259274
 30
0.0
 10
120.4914853672647
 20
5.168865693802386
 30
0.0
 10
120.6149876298499
 20
5.553713528046702
 30
0.0
 10
120.7065740391481
 20
5.96269046058108
 30
0.0
 10
120.7366167313629
 20
6.245737425219334
 30
0.0
 10
120.75197766968
 20
6.390460372601769
 30
0.0
  0
LINE
  5
EB
330
1F
100
AcDbEntity
  8
0
  6
Continuous
 62
     7
370
    25
100
AcDbLine
 10
115.5253851088
 20
4.941123049
 30
0.0
 11
115.5253851088
 21
2.5041841862
 31
0.0
  0
SPLINE
  5
EC
330
1F
100
AcDbEntity
  8
0
  6
Continuous
 62
     7
370
    25
100
AcDbSpline
210
0.0
220
0.0
230
1.0
 70
     8
 71
     3
 72
    15
 73
    11
 74
     0
 42
0.000000001
 43
0.00000001
 40
0.0
 40
0.0
 40
0.0
 40
0.0
 40
0.1129108407873242
 40
0.2190685532859062
 40
0.3250564627330125
 40
0.4351105689322254
 40
0.554827866821011
 40
0.6867831459411717
 40
0.8344273516239613
 40
0.9999999999999999
 40
0.9999999999999999
 40
0.9999999999999999
 40
0.9999999999999999
 10
118.0040084520656
 20
7.018934079314039
 30
0.0
 10
117.9952778328697
 20
6.885279424673399
 30
0.0
 10
117.9783387674691
 20
6.625963918492709
 30
0.0
 10
117.8487591183961
 20
6.259945741480632
 30
0.0
 10
117.6510464790881
 20
5.931428033999967
 30
0.0
 10
117.3683806525357
 20
5.648383354137835
 30
0.0
 10
117.0131140770084
 20
5.407008052033077
 30
0.0
 10
116.5822220736697
 20
5.211580804293932
 30
0.0
 10
116.0818620392122
 20
5.045483477460543
 30
0.0
 10
115.717823244236
 20
4.977212462876483
 30
0.0
 10
115.5253851087565
 20
4.941123048959188
 30
0.0
  0
SPLINE
  5
ED
330
1F
100
AcDbEntity
  8
0
  6
Continuous
 62
     7
370
    25
100
AcDbSpline
210
0.0
220
0.0
230
1.0
 70
     8
 71
     3
 72
    15
 73
    11
 74
     0
 42
0.000000001
 43
0.00000001
 40
0.0
 40
0.0
 40
0.0
 40
0.0
 40
0.1290149288852516
 40
0.2503959107135167
 40
0.3655894082949584
 40
0.4805627005456191
 40
0.5978635393089503
 40
0.7213391081254167
 40
0.85458726691944
 40
1.0
 40
1.0
 40
1.0
 40
1.0
 10
116.3141837406505
 20
9.115984100690696
 30
0.0
 10
116.4363707369761
 20
9.085983835810522
 30
0.0
 10
116.6735147984164
 20
9.027758452816284
 30
0.0
 10
116.9965104513865
 20
8.87341086004993
 30
0.0
 10
117.2799537027958
 20
8.679111101218759
 30
0.0
 10
117.5166860081799
 20
8.4345797980191
 30
0.0
 10
117.7084335664253
 20
8.144060894439743
 30
0.0
 10
117.8516441547929
 20
7.807932543902256
 30
0.0
 10
117.9553390398882
 20
7.429143117654716
 30
0.0
 10
117.9873199531219
 20
7.159592714723811
 30
0.0
 10
118.0040084520656
 20
7.018934079314039
 30
0.0
  0
SPLINE
  5
EE
330
1F
100
AcDbEntity
  8
0
  6
Continuous
 62
     7
370
    25
100
AcDbSpline
210
0.0
220
0.0
230
1.0
 70
     8
 71
     3
 72
    23
 73
    19
 74
     0
 42
0.000000001
 43
0.00000001
 40
0.0
 40
0.0
 40
0.0
 40
0.0
 40
0.069721771944551
 40
0.1370475981202332
 40
0.201042898849813
 40
0.2627539262485922
 40
0.323213593684892
 40
0.3813720316168132
 40
0.4390753378292916
 40
0.4965092347508664
 40
0.5536995782239562
 40
0.6116748635543123
 40
0.6703831049889551
 40
0.7314843496258122
 40
0.7944429804313673
 40
0.8598356035673279
 40
0.9282485324474459
 40
1.0
 40
1.0
 40
1.0
 40
1.0
 10
88.44971174407077
 20
15.95544540894209
 30
0.0
 10
88.5601055627972
 20
15.93665381612394
 30
0.0
 10
88.77709958463316
 20
15.89971639200585
 30
0.0
 10
89.09025066547777
 20
15.81974918216944
 30
0.0
 10
89.38409860881893
 20
15.72023536984136
 30
0.0
 10
89.65854242638946
 20
15.60083422632722
 30
0.0
 10
89.91382106501065
 20
15.46369059633324
 30
0.0
 10
90.15199898709655
 20
15.30955566768754
 30
0.0
 10
90.36556354081812
 20
15.13057211706046
 30
0.0
 10
90.56658801614
 20
14.93992527057973
 30
0.0
 10
90.74347221929901
 20
14.72572508147622
 30
0.0
 10
90.90013582372777
 20
14.49433635160123
 30
0.0
 10
91.0405403699114
 20
14.24521616620058
 30
0.0
 10
91.15628485421273
 20
13.97521450673101
 30
0.0
 10
91.26166557818638
 20
13.68952998880859
 30
0.0
 10
91.33980573217774
 20
13.38298965328048
 30
0.0
 10
91.40184643393937
 20
13.05853853777725
 30
0.0
 10
91.42587030487645
 20
12.83468244809925
 30
0.0
 10
91.43816834945767
 20
12.72008841877535
 30
0.0
  0
LINE
  5
EF
330
1F
100
AcDbEntity
  8
0
  6
Continuous
 62
     7
370
    25
100
AcDbLine
 10
88.4497117441
 20
18.4340687523
 30
0.0
 11
88.4497117441
 21
15.9554454089
 31
0.0
  0
SPLINE
  5
F0
330
1F
100
AcDbEntity
  8
0
  6
Continuous
 62
     7
370
    25
100
AcDbSpline
210
0.0
220
0.0
230
1.0
 70
     8
 71
     3
 72
    23
 73
    19
 74
     0
 42
0.000000001
 43
0.00000001
 40
0.0
 40
0.0
 40
0.0
 40
0.0
 40
0.0700676608024014
 40
0.136977241899709
 40
0.2009070036381136
 40
0.2624206555428688
 40
0.3219308338188887
 40
0.3802634443003726
 40
0.4373141491519549
 40
0.4939041824381615
 40
0.5510995916657686
 40
0.6087367129551718
 40
0.667863682762977
 40
0.7289892707021245
 40
0.7922415283956135
 40
0.8582607572387821
 40
0.9275266322290201
 40
1.0
 40
1.0
 40
1.0
 40
1.0
 10
94.38173397579372
 20
12.72008841877535
 30
0.0
 10
94.35452665421808
 20
12.92999629741911
 30
0.0
 10
94.30133829561967
 20
13.34035111646646
 30
0.0
 10
94.17758576562449
 20
13.93521958812483
 30
0.0
 10
94.00934136915224
 20
14.49195305071128
 30
0.0
 10
93.8074485086384
 20
15.01331950279102
 30
0.0
 10
93.57087741473049
 20
15.50155096080974
 30
0.0
 10
93.29099483818655
 20
15.95066658993494
 30
0.0
 10
92.97474078028941
 20
16.36355724235239
 30
0.0
 10
92.6234445937107
 20
16.74270660131117
 30
0.0
 10
92.23117170504689
 20
17.08211453841136
 30
0.0
 10
91.8012450500832
 20
17.38546974625947
 30
0.0
 10
91.33394155349819
 20
17.65223931472638
 30
0.0
 10
90.82896601455664
 20
17.88211850401029
 30
0.0
 10
90.28804989302088
 20
18.07928924585453
 30
0.0
 10
89.70821084605127
 20
18.2342380339904
 30
0.0
 10
89.09232140481251
 20
18.35731868519369
 30
0.0
 10
88.66712231649419
 20
18.40810232654691
 30
0.0
 10
88.44971174407077
 20
18.43406875225119
 30
0.0
  0
LINE
  5
F1
330
1F
100
AcDbEntity
  8
0
  6
Continuous
 62
     7
370
    25
100
AcDbLine
 10
91.4381683495
 20
12.7200884188
 30
0.0
 11
94.3817339758
 21
12.7200884188
 31
0.0
  0
LINE
  5
F2
330
1F
100
AcDbEntity
  8
0
  6
Continuous
 62
     7
370
    25
100
AcDbLine
 10
104.3828028086
 20
17.8825510096
 30
0.0
 11
104.3828028086
 21
8.2726749942
 31
0.0
  0
LINE
  5
F3
330
1F
100
AcDbEntity
  8
0
  6
Continuous
 62
     7
370
    25
100
AcDbLine
 10
107.4995193542
 20
17.8825510096
 30
0.0
 11
104.3828028086
 21
17.8825510096
 31
0.0
  0
LINE
  5
F4
330
1F
100
AcDbEntity
  8
0
  6
Continuous
 62
     7
370
    25
100
AcDbLine
 10
107.4995193542
 20
7.5159413474
 30
0.0
 11
107.4995193542
 21
17.8825510096
 31
0.0
  0
SPLINE
  5
F5
330
1F
100
AcDbEntity
  8
0
  6
Continuous
 62
     7
370
    25
100
AcDbSpline
210
0.0
220
0.0
230
1.0
 70
     8
 71
     3
 72
    15
 73
    11
 74
     0
 42
0.000000001
 43
0.00000001
 40
0.0
 40
0.0
 40
0.0
 40
0.0
 40
0.1249789728000807
 40
0.2451839797142595
 40
0.3637242643435101
 40
0.4820643617342452
 40
0.6026193648119226
 40
0.7278927975210804
 40
0.859804011623582
 40
0.9999999999999999
 40
0.9999999999999999
 40
0.9999999999999999
 40
0.9999999999999999
 10
104.6200836978972
 20
3.142277388420495
 30
0.0
 10
104.8233649115641
 20
3.247835449463894
 30
0.0
 10
105.2221623720595
 20
3.454919448617426
 30
0.0
 10
105.7553702250441
 20
3.858050753407647
 30
0.0
 10
106.2255115597014
 20
4.314339866505178
 30
0.0
 10
106.6234358175012
 20
4.836631890414885
 30
0.0
 10
106.9489840741388
 20
5.420486417224033
 30
0.0
 10
107.2049007015739
 20
6.064241480926658
 30
0.0
 10
107.3965323916741
 20
6.767878912070473
 30
0.0
 10
107.4645005638239
 20
7.261576707929471
 30
0.0
 10
107.4995193541606
 20
7.515941347377314
 30
0.0
  0
SPLINE
  5
F6
330
1F
100
AcDbEntity
  8
0
  6
Continuous
 62
     7
370
    25
100
AcDbSpline
210
0.0
220
0.0
230
1.0
 70
     8
 71
     3
 72
    11
 73
     7
 74
     0
 42
0.000000001
 43
0.00000001
 40
0.0
 40
0.0
 40
0.0
 40
0.0
 40
0.2647949752456431
 40
0.5182058311631497
 40
0.7622605321397221
 40
1.0
 40
1.0
 40
1.0
 40
1.0
 10
101.8400494952465
 20
2.754291069480777
 30
0.0
 10
102.089248044657
 20
2.751873082978168
 30
0.0
 10
102.5769315488553
 20
2.74714106453951
 30
0.0
 10
103.2915823681268
 20
2.817174659465077
 30
0.0
 10
103.9731911169422
 20
2.941711777363505
 30
0.0
 10
104.4063453955922
 20
3.076008962301271
 30
0.0
 10
104.6200836978972
 20
3.142277388420495
 30
0.0
  0
LINE
  5
F7
330
1F
100
AcDbEntity
  8
0
  6
Continuous
 62
     7
370
    25
100
AcDbLine
 10
101.8400494952
 20
5.0693829891
 30
0.0
 11
101.8400494952
 21
2.7542910695
 31
0.0
  0
SPLINE
  5
F8
330
1F
100
AcDbEntity
  8
0
  6
Continuous
 62
     7
370
    25
100
AcDbSpline
210
0.0
220
0.0
230
1.0
 70
     8
 71
     3
 72
    23
 73
    19
 74
     0
 42
0.000000001
 43
0.00000001
 40
0.0
 40
0.0
 40
0.0
 40
0.0
 40
0.081033143914123
 40
0.1573000660104783
 40
0.2277301576503494
 40
0.2941726427856197
 40
0.3570167483827522
 40
0.4157768543860006
 40
0.4719020445187239
 40
0.5267349411807144
 40
0.5797443445890448
 40
0.6333896872591286
 40
0.6876719048444769
 40
0.7438011501190086
 40
0.8022622403255336
 40
0.8638072067406952
 40
0.9297511126083629
 40
1.0
 40
1.0
 40
1.0
 40
1.0
 10
104.3828028086283
 20
8.272674994234945
 30
0.0
 10
104.3901655190606
 20
8.144443985736984
 30
0.0
 10
104.4044578787185
 20
7.895524282921363
 30
0.0
 10
104.3921138106993
 20
7.534678887686709
 30
0.0
 10
104.3666833183715
 20
7.19765482178233
 30
0.0
 10
104.310614974511
 20
6.88590875310951
 30
0.0
 10
104.2371273835645
 20
6.596579437796933
 30
0.0
 10
104.1313321859721
 20
6.335021355701686
 30
0.0
 10
104.0106492268223
 20
6.094287117718511
 30
0.0
 10
103.8634773187608
 20
5.879085506703232
 30
0.0
 10
103.6901286988086
 20
5.68993032427182
 30
0.0
 10
103.4940448314619
 20
5.525701079380719
 30
0.0
 10
103.2730895944489
 20
5.387622742058407
 30
0.0
 10
103.0315822625196
 20
5.271195362112695
 30
0.0
 10
102.7665543296972
 20
5.181808046288913
 30
0.0
 10
102.4785281001954
 20
5.117803273190757
 30
0.0
 10
102.1670112474095
 20
5.080196763232465
 30
0.0
 10
101.9513094851703
 20
5.073062747952642
 30
0.0
 10
101.8400494952465
 20
5.069382989104549
 30
0.0
  0
SPLINE
  5
F9
330
1F
100
AcDbEntity
  8
0
  6
Continuous
 62
     7
370
    25
100
AcDbSpline
210
0.0
220
0.0
230
1.0
 70
     8
 71
     3
 72
    23
 73
    19
 74
     0
 42
0.000000001
 43
0.00000001
 40
0.0
 40
0.0
 40
0.0
 40
0.0
 40
0.0612058518740894
 40
0.11985876519438
 40
0.1754312135467076
 40
0.2289310432899023
 40
0.2809108969259417
 40
0.3335552445557437
 40
0.3857711238894725
 40
0.4403127727405357
 40
0.4968428917454394
 40
0.5559576303484643
 40
0.6187350746172638
 40
0.685304182324037
 40
0.7565374000980475
 40
0.832334978668362
 40
0.9136415146004571
 40
1.0
 40
1.0
 40
1.0
 40
1.0
 10
101.2019562930233
 20
5.07900248461545
 30
0.0
 10
101.1068470970757
 20
5.077647115757951
 30
0.0
 10
100.9205957757417
 20
5.074992911418521
 30
0.0
 10
100.6477041155248
 20
5.093930918583447
 30
0.0
 10
100.3929992877858
 20
5.152048028886061
 30
0.0
 10
100.1533216434868
 20
5.226010540487914
 30
0.0
 10
99.93182183092208
 20
5.334791109064859
 30
0.0
 10
99.72813402655161
 20
5.46937952679594
 30
0.0
 10
99.53677553303997
 20
5.628207722303069
 30
0.0
 10
99.37034829624595
 20
5.820509540293036
 30
0.0
 10
99.20881763098598
 20
6.030695699146034
 30
0.0
 10
99.07732563769372
 20
6.275775917601804
 30
0.0
 10
98.95444754709446
 20
6.541712913813442
 30
0.0
 10
98.84798699527691
 20
6.835262190638849
 30
0.0
 10
98.76342206423952
 20
7.156597130831117
 30
0.0
 10
98.69283737711979
 20
7.504535104969048
 30
0.0
 10
98.63848574648858
 20
7.87926057562951
 30
0.0
 10
98.61618094243879
 20
8.138928815535582
 30
0.0
 10
98.60469250507975
 20
8.272674994234945
 30
0.0
  0
LINE
  5
FA
330
1F
100
AcDbEntity
  8
0
  6
Continuous
 62
     7
370
    25
100
AcDbLine
 10
101.201956293
 20
2.73184558
 30
0.0
 11
101.201956293
 21
5.0790024846
 31
0.0
  0
SPLINE
  5
FB
330
1F
100
AcDbEntity
  8
0
  6
Continuous
 62
     7
370
    25
100
AcDbSpline
210
0.0
220
0.0
230
1.0
 70
     8
 71
     3
 72
    11
 73
     7
 74
     0
 42
0.000000001
 43
0.00000001
 40
0.0
 40
0.0
 40
0.0
 40
0.0
 40
0.2106086216951794
 40
0.4465051769242517
 40
0.7096645457800954
 40
1.0
 40
1.0
 40
1.0
 40
1.0
 10
98.62713799460519
 20
3.078147418347815
 30
0.0
 10
98.80259132238794
 20
3.025198615336405
 30
0.0
 10
99.17456478925273
 20
2.912943407234073
 30
0.0
 10
99.78514625956683
 20
2.815591434587445
 30
0.0
 10
100.4682068823121
 20
2.74625837428448
 30
0.0
 10
100.9494962022037
 20
2.736804569103655
 30
0.0
 10
101.2019562930233
 20
2.731845579955339
 30
0.0
  0
SPLINE
  5
FC
330
1F
100
AcDbEntity
  8
0
  6
Continuous
 62
     7
370
    25
100
AcDbSpline
210
0.0
220
0.0
230
1.0
 70
     8
 71
     3
 72
    23
 73
    19
 74
     0
 42
0.000000001
 43
0.00000001
 40
0.0
 40
0.0
 40
0.0
 40
0.0
 40
0.0625487288862753
 40
0.1232221600421813
 40
0.1822516900773213
 40
0.2410938086492735
 40
0.2985488010239014
 40
0.3567402164763857
 40
0.4146186042927575
 40
0.4727975309768914
 40
0.5325343491208814
 40
0.5928883620487402
 40
0.6554092026692837
 40
0.7196181159637688
 40
0.78582400613133
 40
0.8541600510836197
 40
0.925724760219264
 40
1.0
 40
1.0
 40
1.0
 40
1.0
 10
95.44308498049658
 20
7.689092266573552
 30
0.0
 10
95.44297834564449
 20
7.565005878710902
 30
0.0
 10
95.44276827300125
 20
7.320553385166741
 30
0.0
 10
95.48110544461476
 20
6.960748697113552
 30
0.0
 10
95.5379275406501
 20
6.611207086678125
 30
0.0
 10
95.62040984412305
 20
6.273117734926982
 30
0.0
 10
95.73058869399459
 20
5.944715173882547
 30
0.0
 10
95.86905080519011
 20
5.629448081519451
 30
0.0
 10
96.02872744800487
 20
5.322666131145997
 30
0.0
 10
96.21801054556533
 20
5.029653709456786
 30
0.0
 10
96.4268794263166
 20
4.7440731529833
 30
0.0
 10
96.66867580297608
 20
4.474098644105559
 30
0.0
 10
96.93002954325883
 20
4.21067169025193
 30
0.0
 10
97.21975608568992
 20
3.960308690559506
 30
0.0
 10
97.53536539365086
 20
3.724073705845262
 30
0.0
 10
97.87365845002971
 20
3.494664955326856
 30
0.0
 10
98.23831935636055
 20
3.276464208121262
 30
0.0
 10
98.49593579198671
 20
3.145067048929225
 30
0.0
 10
98.62713799460518
 20
3.078147418347815
 30
0.0
  0
LINE
  5
FD
330
1F
100
AcDbEntity
  8
0
  6
Continuous
 62
     7
370
    25
100
AcDbLine
 10
95.4430849805
 20
17.8825510096
 30
0.0
 11
95.4430849805
 21
7.6890922666
 31
0.0
  0
LINE
  5
FE
330
1F
100
AcDbEntity
  8
0
  6
Continuous
 62
     7
370
    25
100
AcDbLine
 10
98.6046925051
 20
17.8825510096
 30
0.0
 11
95.4430849805
 21
17.8825510096
 31
0.0
  0
LINE
  5
FF
330
1F
100
AcDbEntity
  8
0
  6
Continuous
 62
     7
370
    25
100
AcDbLine
 10
98.6046925051
 20
8.2726749942
 30
0.0
 11
98.6046925051
 21
17.8825510096
 31
0.0
  0
SPLINE
  5
100
330
1F
100
AcDbEntity
  8
0
  6
Continuous
 62
     7
370
    25
100
AcDbSpline
210
0.0
220
0.0
230
1.0
 70
     8
 71
     3
 72
    23
 73
    19
 74
     0
 42
0.000000001
 43
0.00000001
 40
0.0
 40
0.0
 40
0.0
 40
0.0
 40
0.067596354058047
 40
0.1317445072450849
 40
0.1937641970367975
 40
0.2539773733231731
 40
0.3118531665729157
 40
0.3691748728880336
 40
0.4261746576330842
 40
0.4833758556726896
 40
0.5407727511762385
 40
0.5994184131590701
 40
0.6598032459820532
 40
0.7223583940579207
 40
0.7867927646314135
 40
0.8545250933887185
 40
0.9255074830645602
 40
1.0
 40
1.0
 40
1.0
 40
1.0
 10
114.8744659125188
 20
4.941123048959187
 30
0.0
 10
114.7792717543903
 20
4.945351286620942
 30
0.0
 10
114.5937394482472
 20
4.953592072607485
 30
0.0
 10
114.3220067514393
 20
4.984415487709054
 30
0.0
 10
114.0647417731692
 20
5.039588158218239
 30
0.0
 10
113.821706950706
 20
5.113554990865715
 30
0.0
 10
113.5905817199607
 20
5.202535419712466
 30
0.0
 10
113.3756227774079
 20
5.316215040661247
 30
0.0
 10
113.1723087769233
 20
5.447724431036882
 30
0.0
 10
112.983829034724
 20
5.599716451019147
 30
0.0
 10
112.804428837233
 20
5.766021515732729
 30
0.0
 10
112.6450915454431
 20
5.957611357066319
 30
0.0
 10
112.4967672516557
 20
6.166494088988858
 30
0.0
 10
112.3634062857119
 20
6.394721072236739
 30
0.0
 10
112.238972488342
 20
6.639699984119941
 30
0.0
 10
112.1353908911452
 20
6.906985926160526
 30
0.0
 10
112.0413447163438
 20
7.192600628241061
 30
0.0
 10
111.9916292756978
 20
7.391596937429162
 30
0.0
 10
111.9661717697227
 20
7.493495857851876
 30
0.0
  0
LINE
  5
101
330
1F
100
AcDbEntity
  8
0
  6
Continuous
 62
     7
370
    25
100
AcDbLine
 10
114.8744659125
 20
2.5041841862
 30
0.0
 11
114.8744659125
 21
4.941123049
 31
0.0
  0
SPLINE
  5
102
330
1F
100
AcDbEntity
  8
0
  6
Continuous
 62
     7
370
    25
100
AcDbSpline
210
0.0
220
0.0
230
1.0
 70
     8
 71
     3
 72
    23
 73
    19
 74
     0
 42
0.000000001
 43
0.00000001
 40
0.0
 40
0.0
 40
0.0
 40
0.0
 40
0.06883943728926
 40
0.1337639459446724
 40
0.1956650327689254
 40
0.2543000611979704
 40
0.3109736838793108
 40
0.366409872285066
 40
0.4208027666212816
 40
0.475390923264313
 40
0.5310138073870432
 40
0.588337187426018
 40
0.6476671857796414
 40
0.7102760120424368
 40
0.7765634524648574
 40
0.8466333411861284
 40
0.9209067484717457
 40
1.0
 40
1.0
 40
1.0
 40
1.0
 10
109.0867361134594
 20
7.493495857851876
 30
0.0
 10
109.0963387266725
 20
7.294424014494895
 30
0.0
 10
109.1149978483234
 20
6.907601629790949
 30
0.0
 10
109.195700251845
 20
6.346227950713668
 30
0.0
 10
109.3192300354896
 20
5.823075095464823
 30
0.0
 10
109.4875717172089
 20
5.337885692885369
 30
0.0
 10
109.6940553821168
 20
4.887615923894501
 30
0.0
 10
109.9537497028402
 20
4.480301974550816
 30
0.0
 10
110.2497557050656
 20
4.106552707853307
 30
0.0
 10
110.592808641299
 20
3.773911605724418
 30
0.0
 10
110.9812830268208
 20
3.48228193757497
 30
0.0
 10
111.4086560583917
 20
3.223552286627776
 30
0.0
 10
111.8823970338923
 20
3.009696495727351
 30
0.0
 10
112.3971576115117
 20
2.829631367410353
 30
0.0
 10
112.9565483384562
 20
2.689774781869346
 30
0.0
 10
113.5581873069308
 20
2.589742246572325
 30
0.0
 10
114.2016267556993
 20
2.519323436786422
 30
0.0
 10
114.6455359581449
 20
2.50933523591179
 30
0.0
 10
114.8744659125188
 20
2.504184186197323
 30
0.0
  0
LINE
  5
103
330
1F
100
AcDbEntity
  8
0
  6
Continuous
 62
     7
370
    25
100
AcDbLine
 10
111.9661717697
 20
7.4934958579
 30
0.0
 11
109.0867361135
 21
7.4934958579
 31
0.0
  0
LINE
  5
104
330
1F
100
AcDbEntity
  8
0
  6
Continuous
 62
     7
370
    25
100
AcDbLine
 10
44.6946304239
 20
36.3935226128
 30
0.0
 11
44.6946304239
 21
21.3935226128
 31
0.0
  0
LINE
  5
105
330
1F
100
AcDbEntity
  8
0
  6
Continuous
 62
     7
370
    25
100
AcDbLine
 10
47.7696624889
 20
36.3935226128
 30
0.0
 11
44.6946304239
 21
36.3935226128
 31
0.0
  0
LINE
  5
106
330
1F
100
AcDbEntity
  8
0
  6
Continuous
 62
     7
370
    25
100
AcDbLine
 10
47.7696624889
 20
21.3935226128
 30
0.0
 11
47.7696624889
 21
36.3935226128
 31
0.0
  0
LINE
  5
107
330
1F
100
AcDbEntity
  8
0
  6
Continuous
 62
     7
370
    25
100
AcDbLine
 10
44.6946304239
 20
21.3935226128
 30
0.0
 11
47.7696624889
 21
21.3935226128
 31
0.0
  0
LINE
  5
108
330
1F
100
AcDbEntity
  8
0
  6
Continuous
 62
     7
370
    25
100
AcDbLine
 10
29.2997924618
 20
5.11
 30
0.0
 11
1.0
 21
5.11
 31
0.0
  0
ARC
  5
109
330
1F
100
AcDbEntity
  8
0
  6
Continuous
 62
     7
370
    25
100
AcDbCircle
 10
1.0
 20
4.11
 30
0.0
 40
1.0
100
AcDbArc
 50
90.0
 51
180.0
  0
LINE
  5
10A
330
1F
100
AcDbEntity
  8
0
  6
Continuous
 62
     7
370
    25
100
AcDbLine
 10
0.0
 20
4.11
 30
0.0
 11
0.0
 21
1.0
 31
0.0
  0
ARC
  5
10B
330
1F
100
AcDbEntity
  8
0
  6
Continuous
 62
     7
370
    25
100
AcDbCircle
 10
1.0
 20
1.0
 30
0.0
 40
1.0
100
AcDbArc
 50
180.0
 51
270.0
  0
LINE
  5
10C
330
1F
100
AcDbEntity
  8
0
  6
Continuous
 62
     7
370
    25
100
AcDbLine
 10
1.0
 20
0.0
 30
0.0
 11
126.6989214735
 21
0.0
 31
0.0
  0
ARC
  5
10D
330
1F
100
AcDbEntity
  8
0
  6
Continuous
 62
     7
370
    25
100
AcDbCircle
 10
126.6989214735
 20
1.0
 30
0.0
 40
1.000000000000001
100
AcDbArc
 50
270.0
 51
0.0
  0
LINE
  5
10E
330
1F
100
AcDbEntity
  8
0
  6
Continuous
 62
     7
370
    25
100
AcDbLine
 10
127.6989214735
 20
1.0
 30
0.0
 11
127.6989214735
 21
39.0
 31
0.0
  0
ARC
  5
10F
330
1F
100
AcDbEntity
  8
0
  6
Continuous
 62
     7
370
    25
100
AcDbCircle
 10
126.6989214735
 20
39.0
 30
0.0
 40
1.0
100
AcDbArc
 50
0.0
 51
90.0
  0
LINE
  5
110
330
1F
100
AcDbEntity
  8
0
  6
Continuous
 62
     7
370
    25
100
AcDbLine
 10
126.6989214735
 20
40.0
 30
0.0
 11
43.3991290118
 21
40.0
 31
0.0
  0
ARC
  5
111
330
1F
100
AcDbEntity
  8
0
  6
Continuous
 62
     7
370
    25
100
AcDbCircle
 10
43.3991290118
 20
39.0
 30
0.0
 40
1.0
100
AcDbArc
 50
90.0
 51
160.0
  0
LINE
  5
112
330
1F
100
AcDbEntity
  8
0
  6
Continuous
 62
     7
370
    25
100
AcDbLine
 10
42.459436391
 20
39.3420201433
 30
0.0
 11
30.2394850826
 21
5.7679798567
 31
0.0
  0
ARC
  5
113
330
1F
100
AcDbEntity
  8
0
  6
Continuous
 62
     7
370
    25
100
AcDbCircle
 10
29.2997924618
 20
6.11
 30
0.0
 40
1.0
100
AcDbArc
 50
270.0
 51
340.0
  0
ENDSEC
  0
SECTION
  2
OBJECTS
  0
DICTIONARY
  5
C
330
0
100
AcDbDictionary
281
     1
  3
ACAD_GROUP
350
D
  3
ACAD_LAYOUT
350
1A
  3
ACAD_MLINESTYLE
350
17
  3
ACAD_PLOTSETTINGS
350
19
  3
ACAD_PLOTSTYLENAME
350
E
  3
ACAD_SCALELIST
350
47
  0
DICTIONARY
  5
D
102
{ACAD_REACTORS
330
C
102
}
330
C
100
AcDbDictionary
281
     1
  0
DICTIONARY
  5
1A
102
{ACAD_REACTORS
330
C
102
}
330
C
100
AcDbDictionary
281
     1
  3
Layout1
350
1E
  3
Layout2
350
26
  3
Model
350
22
  0
DICTIONARY
  5
17
102
{ACAD_REACTORS
330
C
102
}
330
C
100
AcDbDictionary
281
     1
  3
Standard
350
18
  0
DICTIONARY
  5
19
102
{ACAD_REACTORS
330
C
102
}
330
C
100
AcDbDictionary
281
     1
  0
ACDBDICTIONARYWDFLT
  5
E
102
{ACAD_REACTORS
330
C
102
}
330
C
100
AcDbDictionary
281
     1
  3
Normal
350
F
100
AcDbDictionaryWithDefault
340
F
  0
DICTIONARY
  5
47
102
{ACAD_REACTORS
330
C
102
}
330
C
100
AcDbDictionary
281
     1
  3
A0
350
48
  3
A1
350
49
  3
A2
350
4A
  3
A3
350
4B
  3
A4
350
4C
  3
A5
350
4D
  3
A6
350
4E
  3
A7
350
4F
  3
A8
350
50
  3
A9
350
51
  3
B0
350
52
  3
B1
350
53
  3
B2
350
54
  3
B3
350
55
  3
B4
350
56
  3
B5
350
57
  3
B6
350
58
  3
B7
350
59
  3
B8
350
5A
  3
B9
350
5B
  3
C0
350
5C
  3
C1
350
5D
  3
C2
350
5E
  3
C3
350
5F
  3
C4
350
60
  3
C5
350
61
  3
C6
350
62
  3
C7
350
63
  3
C8
350
64
  3
C9
350
65
  3
D0
350
66
  3
D1
350
67
  3
D2
350
68
  0
LAYOUT
  5
1E
102
{ACAD_REACTORS
330
1A
102
}
330
1A
100
AcDbPlotSettings
  1

  2
none_device
  4

  6

 40
0.0
 41
0.0
 42
0.0
 43
0.0
 44
0.0
 45
0.0
 46
0.0
 47
0.0
 48
0.0
 49
0.0
140
0.0
141
0.0
142
1.0
143
1.0
 70
   688
 72
     1
 73
     0
 74
     5
  7

 75
    16
147
1.0
148
0.0
149
0.0
100
AcDbLayout
  1
Layout1
 70
     1
 71
     1
 10
0.0
 20
0.0
 11
420.0
 21
297.0
 12
0.0
 22
0.0
 32
0.0
 14
1.0000000000E+20
 24
1.0000000000E+20
 34
1.0000000000E+20
 15
-1.0000000000E+20
 25
-1.0000000000E+20
 35
-1.0000000000E+20
146
0.0
 13
0.0
 23
0.0
 33
0.0
 16
1.0
 26
0.0
 36
0.0
 17
0.0
 27
1.0
 37
0.0
 76
     0
330
1B
  0
LAYOUT
  5
26
102
{ACAD_REACTORS
330
1A
102
}
330
1A
100
AcDbPlotSettings
  1

  2
none_device
  4

  6

 40
0.0
 41
0.0
 42
0.0
 43
0.0
 44
0.0
 45
0.0
 46
0.0
 47
0.0
 48
0.0
 49
0.0
140
0.0
141
0.0
142
1.0
143
1.0
 70
   688
 72
     1
 73
     0
 74
     5
  7

 75
    16
147
1.0
148
0.0
149
0.0
100
AcDbLayout
  1
Layout2
 70
     1
 71
     2
 10
0.0
 20
0.0
 11
0.0
 21
0.0
 12
0.0
 22
0.0
 32
0.0
 14
0.0
 24
0.0
 34
0.0
 15
0.0
 25
0.0
 35
0.0
146
0.0
 13
0.0
 23
0.0
 33
0.0
 16
1.0
 26
0.0
 36
0.0
 17
0.0
 27
1.0
 37
0.0
 76
     0
330
23
  0
LAYOUT
  5
22
102
{ACAD_REACTORS
330
1A
102
}
330
1A
100
AcDbPlotSettings
  1

  2
none_device
  4
ANSI_A_(11.00_x_8.50_Inches)
  6

 40
6.35
 41
19.05
 42
6.35000508
 43
19.05000254
 44
279.4
 45
215.9
 46
-4.95300254
 47
45.5784112321
 48
0.0
 49
0.0
140
0.0
141
0.0
142
0.0852787155
143
1.0
 70
  1696
 72
     0
 73
     0
 74
     0
  7

 75
     0
147
0.0179189148
148
-1300.4909072572
149
0.0
100
AcDbLayout
  1
Model
 70
     1
 71
     0
 10
0.0
 20
0.0
 11
420.0
 21
297.0
 12
0.0
 22
0.0
 32
0.0
 14
0.0
 24
0.0
 34
0.0
 15
127.6989214735
 25
40.0
 35
0.0
146
0.0
 13
0.0
 23
0.0
 33
0.0
 16
1.0
 26
0.0
 36
0.0
 17
0.0
 27
1.0
 37
0.0
 76
     0
330
1F
331
29
  0
MLINESTYLE
  5
18
102
{ACAD_REACTORS
330
17
102
}
330
17
100
AcDbMlineStyle
  2
Standard
 70
     0
  3

 62
   256
 51
90.0
 52
90.0
 71
     2
 49
0.5
 62
   256
  6
BYLAYER
 49
-0.5
 62
   256
  6
BYLAYER
  0
ACDBPLACEHOLDER
  5
F
102
{ACAD_REACTORS
330
E
102
}
330
E
  0
SCALE
  5
48
102
{ACAD_REACTORS
330
47
102
}
330
47
100
AcDbScale
 70
     0
300
1:1
140
1.0
141
1.0
290
     1
  0
SCALE
  5
49
102
{ACAD_REACTORS
330
47
102
}
330
47
100
AcDbScale
 70
     0
300
1:2
140
1.0
141
2.0
290
     0
  0
SCALE
  5
4A
102
{ACAD_REACTORS
330
47
102
}
330
47
100
AcDbScale
 70
     0
300
1:4
140
1.0
141
4.0
290
     0
  0
SCALE
  5
4B
102
{ACAD_REACTORS
330
47
102
}
330
47
100
AcDbScale
 70
     0
300
1:5
140
1.0
141
5.0
290
     0
  0
SCALE
  5
4C
102
{ACAD_REACTORS
330
47
102
}
330
47
100
AcDbScale
 70
     0
300
1:8
140
1.0
141
8.0
290
     0
  0
SCALE
  5
4D
102
{ACAD_REACTORS
330
47
102
}
330
47
100
AcDbScale
 70
     0
300
1:10
140
1.0
141
10.0
290
     0
  0
SCALE
  5
4E
102
{ACAD_REACTORS
330
47
102
}
330
47
100
AcDbScale
 70
     0
300
1:16
140
1.0
141
16.0
290
     0
  0
SCALE
  5
4F
102
{ACAD_REACTORS
330
47
102
}
330
47
100
AcDbScale
 70
     0
300
1:20
140
1.0
141
20.0
290
     0
  0
SCALE
  5
50
102
{ACAD_REACTORS
330
47
102
}
330
47
100
AcDbScale
 70
     0
300
1:30
140
1.0
141
30.0
290
     0
  0
SCALE
  5
51
102
{ACAD_REACTORS
330
47
102
}
330
47
100
AcDbScale
 70
     0
300
1:40
140
1.0
141
40.0
290
     0
  0
SCALE
  5
52
102
{ACAD_REACTORS
330
47
102
}
330
47
100
AcDbScale
 70
     0
300
1:50
140
1.0
141
50.0
290
     0
  0
SCALE
  5
53
102
{ACAD_REACTORS
330
47
102
}
330
47
100
AcDbScale
 70
     0
300
1:100
140
1.0
141
100.0
290
     0
  0
SCALE
  5
54
102
{ACAD_REACTORS
330
47
102
}
330
47
100
AcDbScale
 70
     0
300
2:1
140
2.0
141
1.0
290
     0
  0
SCALE
  5
55
102
{ACAD_REACTORS
330
47
102
}
330
47
100
AcDbScale
 70
     0
300
4:1
140
4.0
141
1.0
290
     0
  0
SCALE
  5
56
102
{ACAD_REACTORS
330
47
102
}
330
47
100
AcDbScale
 70
     0
300
8:1
140
8.0
141
1.0
290
     0
  0
SCALE
  5
57
102
{ACAD_REACTORS
330
47
102
}
330
47
100
AcDbScale
 70
     0
300
10:1
140
10.0
141
1.0
290
     0
  0
SCALE
  5
58
102
{ACAD_REACTORS
330
47
102
}
330
47
100
AcDbScale
 70
     0
300
100:1
140
100.0
141
1.0
290
     0
  0
SCALE
  5
59
102
{ACAD_REACTORS
330
47
102
}
330
47
100
AcDbScale
 70
     0
300
1/128" = 1'-0"
140
0.0078125
141
12.0
290
     0
  0
SCALE
  5
5A
102
{ACAD_REACTORS
330
47
102
}
330
47
100
AcDbScale
 70
     0
300
1/64" = 1'-0"
140
0.015625
141
12.0
290
     0
  0
SCALE
  5
5B
102
{ACAD_REACTORS
330
47
102
}
330
47
100
AcDbScale
 70
     0
300
1/32" = 1'-0"
140
0.03125
141
12.0
290
     0
  0
SCALE
  5
5C
102
{ACAD_REACTORS
330
47
102
}
330
47
100
AcDbScale
 70
     0
300
1/16" = 1'-0"
140
0.0625
141
12.0
290
     0
  0
SCALE
  5
5D
102
{ACAD_REACTORS
330
47
102
}
330
47
100
AcDbScale
 70
     0
300
3/32" = 1'-0"
140
0.09375
141
12.0
290
     0
  0
SCALE
  5
5E
102
{ACAD_REACTORS
330
47
102
}
330
47
100
AcDbScale
 70
     0
300
1/8" = 1'-0"
140
0.125
141
12.0
290
     0
  0
SCALE
  5
5F
102
{ACAD_REACTORS
330
47
102
}
330
47
100
AcDbScale
 70
     0
300
3/16" = 1'-0"
140
0.1875
141
12.0
290
     0
  0
SCALE
  5
60
102
{ACAD_REACTORS
330
47
102
}
330
47
100
AcDbScale
 70
     0
300
1/4" = 1'-0"
140
0.25
141
12.0
290
     0
  0
SCALE
  5
61
102
{ACAD_REACTORS
330
47
102
}
330
47
100
AcDbScale
 70
     0
300
3/8" = 1'-0"
140
0.375
141
12.0
290
     0
  0
SCALE
  5
62
102
{ACAD_REACTORS
330
47
102
}
330
47
100
AcDbScale
 70
     0
300
1/2" = 1'-0"
140
0.5
141
12.0
290
     0
  0
SCALE
  5
63
102
{ACAD_REACTORS
330
47
102
}
330
47
100
AcDbScale
 70
     0
300
3/4" = 1'-0"
140
0.75
141
12.0
290
     0
  0
SCALE
  5
64
102
{ACAD_REACTORS
330
47
102
}
330
47
100
AcDbScale
 70
     0
300
1" = 1'-0"
140
1.0
141
12.0
290
     0
  0
SCALE
  5
65
102
{ACAD_REACTORS
330
47
102
}
330
47
100
AcDbScale
 70
     0
300
1-1/2" = 1'-0"
140
1.5
141
12.0
290
     0
  0
SCALE
  5
66
102
{ACAD_REACTORS
330
47
102
}
330
47
100
AcDbScale
 70
     0
300
3" = 1'-0"
140
3.0
141
12.0
290
     0
  0
SCALE
  5
67
102
{ACAD_REACTORS
330
47
102
}
330
47
100
AcDbScale
 70
     0
300
6" = 1'-0"
140
6.0
141
12.0
290
     0
  0
SCALE
  5
68
102
{ACAD_REACTORS
330
47
102
}
330
47
100
AcDbScale
 70
     0
300
1'-0" = 1'-0"
140
12.0
141
12.0
290
     0
  0
ENDSEC
  0
EOF
